<svg width="789" height="574" viewBox="0 0 789 574" fill="none" xmlns="http://www.w3.org/2000/svg">
<path d="M476.506 155.35L524.49 160.227C525.375 160.316 526.24 160.277 527.078 160.141C512.127 148.045 496.853 136.364 481.057 125.374C477.484 122.887 473.884 120.443 470.268 118.03L467.583 144.414C467.029 149.896 471.021 154.791 476.506 155.35Z" fill="#919397"/>
<path d="M504.316 174.172L501.434 202.577C500.875 208.059 504.871 212.958 510.352 213.513L583.983 220.993C585.174 221.113 586.334 221.008 587.432 220.729C586.769 219.732 586.094 218.739 585.403 217.753C578.731 208.21 571.05 199.528 562.829 191.303C554.333 182.804 545.22 175.002 535.96 167.356L515.252 165.253C509.771 164.695 504.875 168.687 504.316 174.172Z" fill="#505543"/>
<path d="M470.292 211.029L482.811 212.302C488.436 212.872 493.452 208.837 494.015 203.286L497.018 173.768C497.58 168.216 493.48 163.254 487.851 162.684L475.332 161.412C469.711 160.838 464.694 164.876 464.128 170.424L461.133 199.946C460.567 205.493 464.671 210.459 470.292 211.029Z" fill="#E30606"/>
<path d="M530.22 291.94L526.818 325.446C526.562 327.96 527.513 330.369 529.27 332.317C530.123 332.348 530.969 332.39 531.826 332.402C544.112 332.569 555.991 330.392 567.49 326.152C572.261 324.399 576.765 322.059 580.99 319.243C585.498 316.233 588.978 312.167 591.984 307.694C595.86 301.922 598.715 295.699 600.666 289.065L543.697 283.281C536.811 282.579 530.779 286.458 530.22 291.94Z" fill="#919397"/>
<path d="M603.616 269.124C603.535 260.38 602.045 251.853 599.105 243.598C597.956 240.374 596.614 237.251 595.136 234.202C589.841 234.881 585.674 238.302 585.216 242.814L582.33 271.215C581.771 276.701 586.9 281.713 593.786 282.411L602.103 283.257C603.089 278.598 603.655 273.892 603.616 269.124Z" fill="#505543"/>
<path d="M564.534 227.606L548.815 226.008C541.751 225.29 535.563 229.271 534.993 234.896L531.955 264.81C531.381 270.431 536.645 275.575 543.706 276.293L559.425 277.891C566.486 278.605 572.677 274.629 573.248 269.007L576.285 239.089C576.859 233.464 571.595 228.324 564.534 227.606Z" fill="#E30606"/>
<path d="M312.45 183.705L372.701 189.827C379.587 190.525 385.619 186.65 386.178 181.164L389.584 147.658C390.139 142.176 385.006 137.164 378.124 136.462L317.869 130.344C310.987 129.642 304.955 133.521 304.396 139.003L300.99 172.509C300.435 177.991 305.568 183.003 312.45 183.705Z" fill="#919397"/>
<path d="M448.613 125.531L413.295 121.943C406.409 121.244 400.377 125.12 399.818 130.605L394.899 179.001C394.344 184.483 399.473 189.495 406.355 190.197L441.681 193.785C448.559 194.484 454.595 190.604 455.154 185.123L460.069 136.723C460.628 131.242 455.495 126.229 448.613 125.531Z" fill="#6A8643"/>
<path d="M348.072 71.9009L345.186 100.31C344.627 105.791 349.76 110.804 356.646 111.502L449.099 120.898C455.698 121.565 461.498 118.031 462.464 112.91C452.603 106.559 442.563 100.504 432.294 94.801C424.093 90.2466 415.76 85.9482 407.28 81.933C401.29 79.1011 395.261 76.3506 389.07 73.9841C383.231 71.7419 377.331 69.6547 373.785 68.3513C366.72 66.2486 361.949 64.7318 357.177 63.4244C352.273 64.34 348.507 67.6258 348.072 71.9009Z" fill="#505543"/>
<path d="M517.046 223.593L469.066 218.716C463.58 218.161 458.684 222.153 458.126 227.635L454.723 261.141C454.165 266.627 458.157 271.523 463.638 272.081L511.627 276.954C517.112 277.512 522.004 273.521 522.563 268.039L525.969 234.529C526.523 229.047 522.532 224.151 517.046 223.593Z" fill="#919397"/>
<path d="M443.163 201.476L415.034 198.617C409.552 198.062 404.653 202.054 404.098 207.536L399.179 255.935C398.624 261.421 402.616 266.313 408.101 266.871L436.227 269.73C441.709 270.289 446.608 266.293 447.163 260.808L452.082 212.412C452.637 206.931 448.645 202.035 443.163 201.476Z" fill="#6A8643"/>
<path d="M470.646 280.823L397.019 273.343C396.305 273.274 395.607 273.277 394.928 273.351C398.497 274.317 401.775 276.005 405.018 277.743C417.933 284.656 430.428 292.287 442.959 299.859C448.836 303.413 454.659 307.075 460.645 310.434C465.23 313.01 469.975 315.319 474.758 317.51C475.452 317.832 476.155 318.139 476.857 318.453L479.565 291.759C480.119 286.277 476.127 281.382 470.646 280.823Z" fill="#505543"/>
<path d="M519.77 295.089C520.34 289.464 516.248 284.44 510.622 283.866L498.104 282.597C492.482 282.027 487.455 286.12 486.884 291.745L483.851 321.585C486.772 322.838 489.701 324.072 492.626 325.313C494.023 325.907 495.501 326.329 496.959 326.764C502.643 328.444 508.372 329.809 514.176 330.779C515.565 329.227 516.504 327.237 516.733 325.003L519.77 295.089Z" fill="#E30606"/>
<path d="M281.063 110.051L284.792 73.3329C285.23 69.0229 283.096 65.0581 279.644 62.9283C274.779 65.3025 270.131 68.1151 265.666 71.3001C256.542 77.8097 248.5 85.5026 241.094 93.8859C237.141 98.3589 233.735 103.262 230.267 108.108C228.556 110.505 226.88 112.93 225.239 115.374L269.08 119.827C275.085 120.437 280.451 116.061 281.063 110.051Z" fill="#919397"/>
<path d="M289.309 109.739C288.754 115.22 292.746 120.116 298.228 120.675L326.357 123.534C331.839 124.089 336.739 120.097 337.297 114.611L342.208 66.2158C342.472 63.6593 341.735 61.2385 340.327 59.3143C340.048 59.2639 339.764 59.2018 339.489 59.1475C335.683 58.4454 331.916 57.5259 328.095 56.9673C323.863 56.3621 319.615 55.8694 315.328 55.7181C311.957 55.6056 308.593 55.466 305.218 55.6173C301.991 55.7608 298.841 56.2768 295.729 57.0177C294.926 58.2863 294.391 59.7488 294.228 61.3394L289.309 109.739Z" fill="#6A8643"/>
<path d="M206.212 170.331L279.843 177.811C285.328 178.37 290.224 174.378 290.779 168.892L293.665 140.487C294.224 135.006 290.232 130.11 284.746 129.551L220.212 122.995C217.477 127.363 214.855 131.805 212.364 136.328C209.284 141.915 206.464 147.629 203.818 153.437C201.979 157.463 200.311 161.56 198.775 165.699C200.354 168.217 203.027 170.009 206.212 170.331Z" fill="#505543"/>
<path d="M308.336 260.161C308.922 254.388 303.522 249.104 296.271 248.371L232.808 241.924C225.557 241.187 219.203 245.272 218.617 251.044L215.029 286.335C214.443 292.108 219.847 297.391 227.097 298.125L290.557 304.572C292.128 304.731 293.652 304.657 295.092 304.394C298.102 302.656 300.981 300.743 303.743 298.672C304.282 297.682 304.635 296.604 304.751 295.452L308.336 260.161Z" fill="#919397"/>
<path d="M364.183 254.868L328.861 251.28C321.979 250.586 315.943 254.461 315.388 259.943L312.196 291.358C312.677 290.9 313.161 290.446 313.639 289.973C317.363 286.284 321.525 283.27 326.161 280.864C335.437 276.058 345.147 272.531 355.478 270.805C362.073 269.703 368.668 269.37 375.255 269.82L375.639 266.064C376.198 260.583 371.065 255.571 364.183 254.868Z" fill="#6A8643"/>
<path d="M381.992 199.862L289.534 190.47C282.648 189.768 276.616 193.647 276.057 199.132L273.171 227.534C272.616 233.015 277.745 238.031 284.63 238.729L377.088 248.122C383.974 248.824 390.003 244.944 390.561 239.463L393.448 211.058C394.006 205.576 388.874 200.564 381.992 199.862Z" fill="#505543"/>
<path d="M255.486 183.939L239.767 182.34C232.703 181.623 226.515 185.603 225.945 191.228L222.907 221.142C222.333 226.767 227.597 231.907 234.658 232.625L250.377 234.22C257.438 234.937 263.629 230.961 264.2 225.34L267.241 195.422C267.811 189.797 262.547 184.656 255.486 183.939Z" fill="#E30606"/>
<path d="M184.632 152.02L190.432 135.719C193.039 128.394 189.757 120.539 183.104 118.172L147.728 105.587C141.078 103.221 133.576 107.244 130.969 114.564L125.169 130.866C122.566 138.19 125.844 146.046 132.497 148.412L167.869 160.997C174.523 163.363 182.029 159.344 184.632 152.02Z" fill="#6A8643"/>
<path d="M211.354 101.472L219.593 88.3477C223.294 82.4472 222.491 75.2741 217.79 72.3297L192.806 56.6453C188.112 53.6969 181.3 56.0905 177.599 61.9872L169.359 75.1151C165.658 81.0118 166.465 88.1848 171.159 91.1331L196.146 106.814C200.84 109.762 207.649 107.372 211.354 101.472Z" fill="#E30606"/>
<path d="M268.918 39.3322C270.136 42.172 273.433 43.491 276.273 42.2689L290.856 36.0154C293.695 34.7933 295.014 31.4997 293.792 28.66L283.027 3.56805C281.805 0.72445 278.511 -0.586787 275.672 0.631345L261.089 6.88882C258.249 8.11083 256.934 11.4006 258.152 14.2442L268.918 39.3322Z" fill="#505543"/>
<path d="M234.036 63.6016C236.511 65.937 240.41 65.8207 242.745 63.3495L254.721 50.6522C257.052 48.1733 256.94 44.2783 254.465 41.9429L232.616 21.3356C230.145 19.004 226.242 19.1166 223.91 21.5916L211.935 34.2889C209.599 36.7678 209.712 40.6627 212.191 42.9981L234.036 63.6016Z" fill="#919397"/>
<path d="M65.3206 223.836C64.3546 231.897 68.428 239.008 74.4178 239.729L154.892 249.389C160.882 250.103 166.522 244.16 167.492 236.098L172.505 194.356C173.47 186.298 169.397 179.184 163.403 178.466L82.933 168.802C76.9394 168.085 71.2987 174.036 70.3328 182.093L65.3206 223.836Z" fill="#505543"/>
<path d="M212.712 223.472L216.118 189.966C216.673 184.484 212.681 179.585 207.199 179.03L194.711 177.761C194.327 179.003 193.951 180.248 193.582 181.497C192.019 186.824 190.816 192.255 189.571 197.67C188.667 201.596 187.81 205.546 187.212 209.53C186.409 214.903 185.955 220.307 186.029 225.75C186.049 227.441 186.111 229.129 186.188 230.808L201.776 232.391C207.257 232.95 212.153 228.958 212.712 223.472Z" fill="#919397"/>
<path d="M210.801 250.555C211.372 244.93 207.275 239.91 201.65 239.336L189.131 238.063C188.328 237.982 187.537 238.009 186.768 238.11C187.319 243.351 188.223 248.546 189.647 253.678C192.324 263.318 196.669 272.086 203.074 279.841C204.265 281.284 205.456 282.727 206.65 284.162C207.236 283.045 207.624 281.804 207.76 280.473L210.801 250.555Z" fill="#E30606"/>
<path d="M31.0461 445.232C31.0461 439.161 32.7103 434.76 36.0387 432.028C39.3776 429.307 43.2031 427.946 47.5154 427.946C42.7845 433.106 40.419 438.868 40.419 445.232C40.419 450.392 42.1146 454.678 45.5058 458.09C48.897 461.503 53.7692 463.209 60.1225 463.209C66.4653 463.209 72.0388 461.544 76.843 458.216C81.6367 454.888 84.0336 450.288 84.0336 444.416C84.0336 440.397 82.6834 436.775 79.983 433.551C77.2826 430.317 74.0013 427.549 70.1391 425.246L58.7095 418.464C54.931 416.15 51.6916 413.34 48.9912 410.033C46.2908 406.725 44.9406 402.952 44.9406 398.713C44.9406 393.731 46.3955 388.649 49.3052 383.468C52.2149 378.298 56.5743 373.818 62.3833 370.029C68.1818 366.23 74.6031 364.33 81.6472 364.33C90.659 364.33 95.1649 368.627 95.1649 377.22C95.1649 381.49 94.1287 386.3 92.0563 391.648C89.9839 396.986 87.7074 401.628 85.2268 405.574C82.3799 404.988 80.9564 403.14 80.9564 400.032C80.9564 397.645 82.2229 393.166 84.7558 386.593C87.2992 380.009 88.5709 375.482 88.5709 373.012C88.5709 369.317 86.1583 367.47 81.3332 367.47C73.7867 367.47 67.1875 370.689 61.5355 377.126C55.873 383.563 53.0418 389.774 53.0418 395.761C53.0418 399.289 54.3763 402.444 57.0453 405.229C59.7038 408.013 62.9171 410.43 66.6851 412.482L77.8792 419.092C81.6472 421.311 84.8605 424.283 87.519 428.009C90.188 431.746 91.5225 436.021 91.5225 440.836C91.5225 449.178 88.0947 455.83 81.239 460.791C74.3833 465.762 66.6223 468.248 57.9559 468.248C50.4094 468.248 44.0352 466.254 38.8333 462.267C33.6418 458.289 31.0461 452.611 31.0461 445.232ZM99.4981 449.455C99.4981 443.96 101.058 438.492 104.177 433.049C107.306 427.596 110.671 424.869 114.272 424.869C115.025 424.869 115.926 425.079 116.972 425.497C115.339 426.879 113.414 430.296 111.195 435.749C108.976 441.192 107.866 445.462 107.866 448.561C107.866 453.469 109.394 455.924 112.451 455.924C116.219 455.924 120.829 452.486 126.282 445.609C123.896 443.641 122.033 441.066 120.693 437.885C119.343 434.703 118.668 431.39 118.668 427.946C118.668 423.509 119.803 419.693 122.075 416.501C124.335 413.319 127.392 411.728 131.243 411.728C137.157 411.728 140.135 415.041 140.177 421.666C140.177 428.365 137.283 435.99 131.495 444.541C133.044 445.379 134.682 445.818 136.409 445.86C138.879 445.86 141.454 445.107 144.133 443.599C146.813 442.092 148.822 439.748 150.162 436.566L151.732 437.885C150.099 441.653 147.786 444.437 144.793 446.237C141.799 448.037 138.706 448.937 135.514 448.937C133.211 448.937 131.16 448.498 129.359 447.619C122.483 456.63 115.905 461.157 109.625 461.199C106.108 461.199 103.538 460.121 101.916 457.965C100.304 455.809 99.4981 452.972 99.4981 449.455ZM124.21 428.323C124.21 434.153 125.654 438.785 128.543 442.218C133.525 434.839 136.016 428.239 136.016 422.42C136.016 417.595 134.739 415.182 132.185 415.182C130.301 415.182 128.501 416.496 126.785 419.123C125.068 421.74 124.21 424.806 124.21 428.323ZM147.713 447.933C147.713 443.034 149.126 436.937 151.952 429.642C154.788 422.357 157.149 418.715 159.033 418.715C160.665 418.715 162.256 419.573 163.805 421.29C162.005 424.137 160.121 428.192 158.153 433.457C156.186 438.711 155.202 443.264 155.202 447.116C155.202 452.862 156.751 455.756 159.849 455.798C160.979 455.798 162.162 455.369 163.397 454.511C164.632 453.653 165.888 452.386 167.165 450.711C168.453 449.026 169.672 447.346 170.823 445.672C171.975 443.997 173.199 441.904 174.497 439.392L177.825 433.112L180.903 426.942C182.033 424.471 182.808 422.881 183.226 422.169C187.34 422.922 189.417 424.032 189.459 425.497C189.459 425.748 188.726 427.486 187.261 430.71C185.796 433.944 184.346 437.665 182.912 441.872C181.489 446.08 180.777 449.424 180.777 451.905C180.777 455.338 182.206 457.054 185.063 457.054C187.994 457.054 191.552 455.149 195.739 451.339C199.936 447.519 203.542 442.469 206.556 436.189L208.252 437.382C205.489 444.248 201.642 449.885 196.713 454.291C191.793 458.687 187.005 460.885 182.347 460.885C176.36 460.885 173.367 457.724 173.367 451.402C173.367 449.675 173.66 447.514 174.246 444.918C168.248 455.563 162.633 460.885 157.4 460.885C154.553 460.885 152.224 459.629 150.413 457.117C148.613 454.605 147.713 451.544 147.713 447.933ZM203.605 450.209C203.605 442.83 206.096 432.499 211.078 419.217C209.027 418.882 207.477 418.547 206.431 418.212V415.873C209.529 416.208 211.413 416.376 212.083 416.376C215.861 406.621 219.917 398.148 224.25 390.957C228.584 383.767 231.99 380.171 234.471 380.171C235.141 380.171 235.758 380.433 236.324 380.956C236.889 381.48 237.171 382.16 237.171 382.997C237.171 384.306 236.334 386.551 234.659 389.733C232.974 392.914 230.614 397.169 227.579 402.497C224.543 407.814 222.042 412.566 220.074 416.752H224.847C231.975 416.752 238.113 416.501 243.263 415.999V418.338C234.502 419.343 227.359 419.845 221.833 419.845C221.623 419.845 221.414 419.845 221.205 419.845C220.953 419.845 220.744 419.845 220.577 419.845H218.63C213.93 430.49 211.58 439.748 211.58 447.619C211.58 451.606 212.135 454.364 213.245 455.892C214.354 457.421 216.191 458.185 218.755 458.185C223.109 458.185 227.443 456.238 231.755 452.344C236.078 448.44 239.914 443.055 243.263 436.189L244.896 437.508C241.714 444.96 237.417 451.067 232.006 455.83C226.605 460.581 220.948 462.957 215.034 462.957C207.415 462.957 203.605 458.708 203.605 450.209ZM241.505 448.561C241.505 440.69 243.912 430.003 248.727 416.501C253.552 403.01 259.078 391.078 265.306 380.705C271.523 370.333 276.432 365.146 280.032 365.146C281.424 365.146 282.476 365.984 283.188 367.658C283.9 369.344 284.256 371.212 284.256 373.263C284.256 377.283 282.879 382.552 280.127 389.073C277.384 395.583 273.658 402.015 268.948 408.369C264.228 414.722 259.46 419.364 254.646 422.294C251.464 429.757 249.873 438.199 249.873 447.619C249.873 449.011 249.977 450.481 250.187 452.03C257.806 429.82 266.499 418.715 276.264 418.715C279.53 418.715 281.984 419.845 283.628 422.106C285.26 424.367 286.077 427.088 286.077 430.27C286.077 433.127 285.156 436.953 283.314 441.747C281.461 446.54 280.535 449.926 280.535 451.905C280.535 455.17 281.817 456.803 284.381 456.803C287.312 456.803 290.745 454.762 294.681 450.68C298.626 446.588 301.897 441.757 304.493 436.189L306.126 437.759C303.279 444.29 299.652 449.654 295.246 453.851C290.85 458.038 286.244 460.131 281.43 460.131C278.572 460.131 276.38 459.378 274.851 457.871C273.323 456.363 272.559 454.417 272.559 452.03C272.559 450.314 273.219 447.179 274.537 442.626C275.856 438.083 276.516 434.739 276.516 432.594C276.516 428.491 274.904 426.439 271.68 426.439C268.833 426.439 266.096 428.281 263.469 431.966C260.852 435.66 258.748 439.737 257.157 444.196C255.567 448.665 253.85 452.742 252.008 456.426C250.166 460.11 248.423 461.953 246.78 461.953C245.231 461.953 243.964 460.623 242.98 457.965C241.997 455.306 241.505 452.172 241.505 448.561ZM256.341 417.27C261.826 412.906 267.127 405.977 272.245 396.484C277.353 386.99 279.907 380.36 279.907 376.592C279.907 375.922 279.718 375.587 279.342 375.587C278.379 375.587 276.516 377.534 273.752 381.427C270.989 385.331 267.886 390.664 264.442 397.426C261.009 404.198 258.309 410.812 256.341 417.27ZM300.16 447.807C300.16 439.936 303.76 431.788 310.961 423.362C318.173 414.936 325.489 410.724 332.91 410.724C338.185 410.724 340.823 413.304 340.823 418.464C340.823 424.827 337.484 430.411 330.806 435.216C324.118 440.009 316.833 442.783 308.952 443.537C308.617 445.002 308.428 446.551 308.387 448.184C308.387 455.395 311.783 459.001 318.576 459.001C323.809 459.001 329.09 456.813 334.417 452.438C339.734 448.053 344.073 442.636 347.432 436.189L349.002 437.382C345.559 445.002 340.791 451.13 334.7 455.767C328.598 460.393 322.323 462.706 315.876 462.706C310.799 462.706 306.911 461.314 304.21 458.53C301.51 455.746 300.16 452.172 300.16 447.807ZM309.58 441.087C315.577 438.952 321.339 435.734 326.866 431.432C332.402 427.14 335.171 422.546 335.171 417.647C335.171 415.669 334.271 414.68 332.47 414.68C328.441 414.68 324.071 417.49 319.361 423.111C314.64 428.721 311.38 434.713 309.58 441.087ZM346.051 442.909L344.905 440.711C349.018 432.745 352.498 424.592 355.345 416.25C354.508 415.413 354.068 414.387 354.027 413.173C354.027 410.87 354.696 408.829 356.036 407.05C357.376 405.27 358.506 404.381 359.427 404.381C360.641 404.381 361.248 405.427 361.248 407.521C361.248 407.856 361.018 408.683 360.558 410.001C360.097 411.32 359.867 412.063 359.867 412.231C359.867 413.277 360.552 414.376 361.924 415.528C363.284 416.69 364.781 417.783 366.414 418.809C368.047 419.835 369.554 421.363 370.935 423.393C372.317 425.424 373.008 427.674 373.008 430.144C373.008 433.002 371.93 436.932 369.774 441.935C367.617 446.949 366.539 450.272 366.539 451.905C366.539 454.458 367.837 455.756 370.433 455.798C374.201 455.798 378.341 453.653 382.852 449.361C387.352 445.059 390.503 440.794 392.303 436.566L393.952 437.885C391.304 443.788 387.447 449.016 382.381 453.569C377.304 458.111 372.191 460.383 367.042 460.383C364.111 460.383 361.814 459.619 360.15 458.09C358.496 456.562 357.669 454.542 357.669 452.03C357.669 449.466 358.841 445.368 361.186 439.737C363.541 434.096 364.718 430.165 364.718 427.946C364.718 427.109 364.593 426.282 364.341 425.466C364.09 424.649 363.86 424 363.651 423.519C363.441 423.038 363.002 422.504 362.332 421.918L360.872 420.599C360.621 420.348 360.045 419.929 359.145 419.343C358.245 418.757 357.711 418.38 357.543 418.212C353.524 428.522 349.693 436.754 346.051 442.909ZM384.642 456.175C384.642 455.924 385.395 453.904 386.902 450.115C388.409 446.315 389.938 441.914 391.487 436.911C393.036 431.898 393.81 427.758 393.81 424.492C395.454 422.692 397.427 421.792 399.729 421.792C402.032 421.792 403.183 422.901 403.183 425.12C403.183 428.051 401.823 433.708 399.101 442.092C408.992 427.01 417.915 419.468 425.87 419.468C428.978 419.468 431.339 420.609 432.95 422.891C434.562 425.173 435.368 427.884 435.368 431.024C435.368 433.881 434.489 437.497 432.731 441.872C430.972 446.247 430.093 449.424 430.093 451.402C430.093 454.668 431.391 456.301 433.987 456.301C439.304 456.301 445.296 449.597 451.963 436.189L453.408 437.885C447.253 452.381 439.837 459.629 431.161 459.629C428.23 459.629 425.985 458.875 424.425 457.368C422.876 455.861 422.102 453.872 422.102 451.402C422.102 449.675 422.73 446.771 423.986 442.689C425.242 438.607 425.87 435.54 425.87 433.489C425.87 429.291 424.153 427.193 420.72 427.193C418.669 427.193 416.46 428.009 414.095 429.642C411.729 431.275 409.641 433.038 407.83 434.933C406.03 436.817 403.905 439.559 401.456 443.16C399.007 446.76 397.259 449.424 396.212 451.151L391.487 459.001C388.305 459.001 386.023 458.059 384.642 456.175ZM448.76 445.232C448.76 439.161 450.425 434.76 453.753 432.028C457.092 429.307 460.917 427.946 465.23 427.946C460.488 433.106 458.118 438.868 458.118 445.232C458.118 450.392 459.818 454.678 463.22 458.09C466.611 461.503 471.483 463.209 477.837 463.209C484.18 463.209 489.753 461.544 494.557 458.216C499.351 454.888 501.748 450.288 501.748 444.416C501.748 440.397 500.398 436.775 497.697 433.551C494.997 430.317 491.716 427.549 487.853 425.246L476.424 418.464C472.645 416.15 469.406 413.34 466.705 410.033C464.005 406.725 462.655 402.952 462.655 398.713C462.655 393.731 464.11 388.649 467.019 383.468C469.929 378.298 474.289 373.818 480.098 370.029C485.896 366.23 492.317 364.33 499.361 364.33C508.373 364.33 512.879 368.627 512.879 377.22C512.879 381.49 511.843 386.3 509.771 391.648C507.698 396.986 505.422 401.628 502.941 405.574C500.094 404.988 498.671 403.14 498.671 400.032C498.671 397.645 499.937 393.166 502.47 386.593C505.003 380.009 506.269 375.482 506.269 373.012C506.269 369.317 503.862 367.47 499.047 367.47C491.501 367.47 484.902 370.689 479.25 377.126C473.587 383.563 470.756 389.774 470.756 395.761C470.756 399.289 472.091 402.444 474.76 405.229C477.418 408.013 480.631 410.43 484.399 412.482L495.593 419.092C499.361 421.311 502.575 424.283 505.233 428.009C507.902 431.746 509.237 436.021 509.237 440.836C509.237 449.178 505.809 455.83 498.953 460.791C492.098 465.762 484.337 468.248 475.67 468.248C468.124 468.248 461.749 466.254 456.548 462.267C451.356 458.289 448.76 452.611 448.76 445.232ZM517.84 447.807C517.84 439.308 520.87 431.474 526.931 424.304C532.98 417.134 539.339 413.55 546.006 413.55C549.272 413.55 551.616 414.471 553.04 416.313C554.474 418.165 555.191 420.41 555.191 423.048C555.191 425.602 554.599 427.81 553.417 429.673C552.244 431.536 550.674 432.468 548.707 432.468C547.241 432.468 546.006 431.819 545.001 430.521C546.299 429.935 547.419 428.585 548.361 426.471C549.303 424.356 549.774 422.315 549.774 420.348C549.774 418.212 548.832 417.145 546.948 417.145C542.51 417.145 537.879 420.787 533.054 428.072C528.239 435.367 525.832 442.239 525.832 448.686C525.832 455.814 528.951 459.378 535.189 459.378C540.433 459.378 545.608 457.232 550.716 452.941C555.834 448.639 559.754 443.013 562.475 436.063L564.171 437.382C561.24 445.18 556.755 451.612 550.716 456.677C544.687 461.743 538.528 464.276 532.237 464.276C527.967 464.276 524.497 462.863 521.828 460.037C519.17 457.211 517.84 453.134 517.84 447.807ZM556.698 452.407C556.698 447.331 558.477 441.715 562.036 435.561C565.595 429.396 570.205 424.084 575.868 419.625C581.52 415.156 587.009 412.922 592.337 412.922C595.686 412.922 598.47 413.822 600.689 415.622C602.919 417.433 604.033 419.741 604.033 422.546C604.033 426.23 601.935 428.072 597.738 428.072C598.156 426.523 598.366 425.037 598.366 423.613C598.366 418.788 596.272 416.376 592.086 416.376C588.307 416.376 584.293 418.547 580.044 422.891C575.794 427.224 572.314 432.243 569.603 437.947C566.903 443.641 565.553 448.587 565.553 452.784C565.553 456.133 566.704 457.808 569.007 457.808C570.566 457.808 572.382 457.086 574.455 455.641C576.527 454.197 578.411 452.574 580.107 450.774C581.802 448.963 583.833 446.53 586.198 443.474C588.574 440.417 590.327 438.073 591.458 436.44L596.042 429.768C599.475 430.354 601.192 431.427 601.192 432.986C601.192 433.656 599.957 436.22 597.486 440.679C595.016 445.138 593.781 448.545 593.781 450.9C593.781 452.365 594.137 453.673 594.849 454.825C595.561 455.976 596.649 456.552 598.114 456.552C600.585 456.552 603.719 454.772 607.519 451.214C611.308 447.645 615.044 442.636 618.729 436.189L620 437.508C617.352 444.374 613.6 449.989 608.743 454.354C603.876 458.708 599.14 460.885 594.535 460.885C591.52 460.885 589.218 460.006 587.627 458.247C586.025 456.489 585.225 454.375 585.225 451.905C585.225 450.858 585.371 449.618 585.664 448.184C581.813 453.344 578.359 457.117 575.302 459.503C572.236 461.89 569.195 463.083 566.181 463.083C563.334 463.083 561.041 462.162 559.304 460.32C557.567 458.478 556.698 455.84 556.698 452.407ZM603.971 488.36C603.971 487.69 604.169 486.706 604.567 485.408C604.965 484.111 605.698 482.064 606.765 479.27C607.833 476.486 608.66 474.193 609.246 472.393C612.093 464.135 614.374 455.783 616.091 447.336C617.807 438.9 619.613 426.863 621.507 411.226C621.591 410.389 621.78 409.813 622.073 409.499C622.366 409.185 622.994 409.028 623.957 409.028C626.008 409.028 627.547 409.604 628.572 410.755C629.598 411.906 630.111 413.298 630.111 414.931C630.111 417.328 629.127 423.132 627.159 432.342C629.797 427.193 633.036 422.755 636.878 419.029C640.709 415.292 644.885 413.424 649.406 413.424C653.185 413.424 656.299 414.779 658.748 417.49C661.197 420.191 662.422 423.718 662.422 428.072C662.422 435.451 659.449 442.683 653.504 449.769C647.548 456.845 640.4 460.383 632.058 460.383C629.923 460.383 628.143 460.152 626.72 459.692C625.296 459.231 624.585 458.687 624.585 458.059C624.585 457.64 625.652 457.431 627.787 457.431C634.497 457.431 640.552 454.422 645.952 448.404C651.364 442.396 654.069 436.016 654.069 429.265C654.069 426.335 653.452 423.948 652.217 422.106C650.971 420.264 649.134 419.343 646.706 419.343C642.687 419.343 638.641 421.614 634.57 426.157C630.509 430.71 627.432 435.352 625.338 440.083C617.792 472.1 612.532 489.553 609.56 492.442C609.141 492.861 608.618 493.07 607.99 493.07C607.027 493.07 606.085 492.358 605.164 490.935C604.326 489.637 603.929 488.779 603.971 488.36ZM664.557 447.807C664.557 439.936 668.163 431.788 675.374 423.362C682.586 414.936 689.897 410.724 697.307 410.724C702.593 410.724 705.236 413.304 705.236 418.464C705.236 424.827 701.891 430.411 695.203 435.216C688.525 440.009 681.246 442.783 673.365 443.537C673.03 445.002 672.841 446.551 672.799 448.184C672.799 455.395 676.191 459.001 682.973 459.001C688.217 459.001 693.497 456.813 698.814 452.438C704.142 448.053 708.48 442.636 711.83 436.189L713.4 437.382C709.966 445.002 705.199 451.13 699.097 455.767C693.005 460.393 686.73 462.706 680.273 462.706C675.207 462.706 671.324 461.314 668.623 458.53C665.912 455.746 664.557 452.172 664.557 447.807ZM673.993 441.087C679.979 438.952 685.741 435.734 691.278 431.432C696.805 427.14 699.568 422.546 699.568 417.647C699.568 415.669 698.668 414.68 696.867 414.68C692.848 414.68 688.484 417.49 683.774 423.111C679.053 428.721 675.793 434.713 673.993 441.087ZM706.617 446.739C706.617 444.437 706.983 442.49 707.716 440.899C708.449 439.308 709.265 438.23 710.165 437.665C711.065 437.1 712.007 436.608 712.991 436.189C713.975 435.77 714.593 435.435 714.844 435.184C720.339 429.187 724.594 422.959 727.608 416.501V414.931C727.608 412 728.1 409.813 729.084 408.369C730.068 406.924 731.256 406.202 732.648 406.202C734.029 406.202 734.72 406.767 734.72 407.898C734.72 408.065 734.584 408.745 734.312 409.939C734.04 411.132 733.904 412.335 733.904 413.55C733.904 416.114 735.024 420.871 737.264 427.821C739.503 434.781 740.623 440.355 740.623 444.541C740.623 446.844 740.351 448.963 739.807 450.9C746.181 449.769 751.587 444.908 756.025 436.315L757.218 437.633C754.204 446.478 748.191 451.57 739.179 452.909C736.541 460.027 731.052 463.585 722.71 463.585C717.131 463.585 713.054 461.921 710.479 458.593C707.905 455.264 706.617 451.313 706.617 446.739ZM712.395 446.614C712.395 449.89 713.358 452.794 715.284 455.327C717.22 457.86 719.779 459.127 722.961 459.127C726.896 459.127 729.597 457.012 731.062 452.784C727.629 452.114 724.499 450.769 721.673 448.749C718.847 446.739 716.697 444.52 715.221 442.092C713.337 442.176 712.395 443.683 712.395 446.614ZM715.739 438.136C718.921 444.918 724.238 449.131 731.69 450.774C732.035 448.545 732.229 446.509 732.271 444.667C732.271 442.281 732.046 439.758 731.596 437.1C731.156 434.441 730.549 431.495 729.775 428.26C729 425.037 728.487 422.755 728.236 421.415C723.84 428.616 719.674 434.19 715.739 438.136Z" fill="#C91212"/>
<path d="M0.148514 546.603C0.148514 544.122 2.22091 542.882 6.36571 542.882C8.84631 542.882 12.3212 543.479 16.7905 544.672C17.7534 543.039 18.7425 540.919 19.7578 538.313C20.7626 535.707 21.5633 533.546 22.1599 531.829C22.746 530.123 23.6619 527.281 24.9074 523.304L27.388 515.611C24.7923 514.753 22.746 513.502 21.2493 511.859C19.7421 510.215 18.9885 508.441 18.9885 506.536C18.9885 504.914 19.4857 503.391 20.48 501.968C21.4743 500.544 22.7303 499.833 24.248 499.833C23.5049 500.848 23.1333 502.601 23.1333 505.092C23.1333 509.143 24.7452 512.052 27.9689 513.821C29.2145 510.043 30.4024 506.793 31.5328 504.072C32.6632 501.35 33.982 498.723 35.4892 496.19C36.9859 493.647 38.6397 491.721 40.4504 490.413C42.2611 489.104 44.187 488.45 46.228 488.45C48.3213 488.45 50.2106 489.13 51.8957 490.491C53.5808 491.862 54.4234 494.065 54.4234 497.101C54.4234 499.142 54.0047 501.266 53.1674 503.475C52.3196 505.683 51.1055 507.787 49.525 509.786C47.9341 511.785 45.7936 513.423 43.1037 514.7C40.4138 515.967 37.4098 516.6 34.0919 516.6H32.726C27.9323 531.055 23.8607 540.783 20.5114 545.786C21.0138 545.954 22.2855 546.352 24.3265 546.98L28.4713 548.22C29.1621 548.44 30.3815 548.78 32.1294 549.24C33.8878 549.69 35.2485 550.02 36.2114 550.23C37.1743 550.439 38.289 550.627 39.5555 550.795C40.8324 550.962 41.9785 551.046 42.9938 551.046C45.2546 551.046 47.259 550.591 49.0069 549.68C47.3218 554.474 44.3545 556.871 40.105 556.871C38.6397 556.871 36.8708 556.578 34.7984 555.991C32.726 555.395 31.0827 554.84 29.8686 554.327C28.6545 553.814 26.5507 552.872 23.5572 551.501C20.5637 550.12 18.7373 549.288 18.0779 549.005C15.074 552.344 11.9287 554.013 8.64221 554.013C6.09881 554.013 4.04735 553.186 2.48781 551.533C0.928281 549.879 0.148514 548.236 0.148514 546.603ZM4.16771 549.916C5.35045 550.994 6.73205 551.533 8.31251 551.533C10.678 551.533 12.855 550.235 14.8437 547.639C10.6466 545.964 7.41761 545.127 5.15681 545.127C3.28328 545.127 2.34651 545.65 2.34651 546.697C2.34651 547.775 2.95358 548.848 4.16771 549.916ZM33.2284 514.983C37.8651 514.931 41.7954 512.555 45.0191 507.855C48.2533 503.166 49.8704 498.822 49.8704 494.824C49.8704 492.009 48.8499 490.601 46.8089 490.601C45.5634 490.601 44.3492 491.192 43.1665 492.375C41.9733 493.568 40.7854 495.473 39.6026 498.09C38.4199 500.717 37.3994 503.187 36.5411 505.5C35.6828 507.824 34.5786 510.985 33.2284 514.983ZM52.5551 546.446C52.5551 543.107 53.7274 539.407 56.0719 535.346C58.4269 531.295 61.4675 527.799 65.1936 524.858C68.9093 521.917 72.5203 520.447 76.0266 520.447C78.2351 520.447 80.072 521.038 81.5373 522.221C83.0027 523.414 83.7353 524.932 83.7353 526.774C83.7353 529.202 82.3537 530.416 79.5905 530.416C79.8626 529.401 79.9987 528.422 79.9987 527.48C79.9987 524.309 78.6224 522.723 75.8696 522.723C73.3786 522.723 70.7357 524.152 67.9411 527.009C65.136 529.867 62.8439 533.169 61.0645 536.916C59.2852 540.673 58.3955 543.934 58.3955 546.697C58.3955 548.905 59.1544 550.01 60.672 550.01C61.6978 550.01 62.891 549.533 64.2516 548.581C65.6228 547.629 66.863 546.556 67.9725 545.363C69.0924 544.18 70.4322 542.578 71.9917 540.558C73.5513 538.549 74.7026 537.005 75.4457 535.927L78.4758 531.547C80.7366 531.934 81.867 532.635 81.867 533.65C81.867 534.09 81.0558 535.78 79.4335 538.721C77.8007 541.663 76.9843 543.908 76.9843 545.457C76.9843 546.42 77.2198 547.278 77.6908 548.032C78.1618 548.796 78.8788 549.178 79.8417 549.178C81.4641 549.178 83.526 548.005 86.0275 545.661C88.529 543.316 90.994 540.019 93.4222 535.77L94.2386 536.633C92.5012 541.155 90.0363 544.855 86.8439 547.733C83.6411 550.601 80.5221 552.035 77.4867 552.035C75.4981 552.035 73.9804 551.454 72.9337 550.292C71.8766 549.131 71.348 547.738 71.348 546.116C71.348 545.425 71.4475 544.609 71.6463 543.667C69.1029 547.069 66.8264 549.554 64.8168 551.124C62.7968 552.694 60.7924 553.479 58.8037 553.479C56.9302 553.479 55.423 552.872 54.2821 551.658C53.1308 550.444 52.5551 548.707 52.5551 546.446ZM88.4453 548.926C88.4453 548.759 88.9425 547.43 89.9368 544.939C90.9312 542.437 91.9412 539.538 92.9669 536.241C93.9822 532.944 94.4898 530.217 94.4898 528.061C95.5679 526.878 96.8657 526.287 98.3834 526.287C99.9011 526.287 100.66 527.02 100.66 528.485C100.66 530.411 99.765 534.132 97.9752 539.648C104.485 529.715 110.363 524.748 115.606 524.748C117.647 524.748 119.202 525.502 120.269 527.009C121.326 528.516 121.855 530.301 121.855 532.363C121.855 534.247 121.274 536.628 120.112 539.506C118.961 542.395 118.385 544.489 118.385 545.786C118.385 547.932 119.238 549.005 120.944 549.005C124.451 549.005 128.397 544.593 132.782 535.77L133.74 536.885C129.679 546.43 124.796 551.203 119.092 551.203C117.155 551.203 115.674 550.706 114.649 549.711C113.633 548.717 113.126 547.409 113.126 545.786C113.126 544.656 113.539 542.746 114.366 540.056C115.193 537.356 115.606 535.33 115.606 533.98C115.606 531.227 114.476 529.851 112.215 529.851C110.865 529.851 109.41 530.385 107.851 531.452C106.291 532.53 104.915 533.692 103.721 534.938C102.539 536.183 101.141 537.989 99.5295 540.354C97.9072 542.73 96.7506 544.483 96.0598 545.614L92.9669 550.795C90.8631 550.795 89.3559 550.172 88.4453 548.926ZM129.799 544.907C129.799 541.788 130.945 538.203 133.237 534.153C135.53 530.092 138.497 526.549 142.139 523.524C145.782 520.509 149.272 519.002 152.611 519.002C155.102 519.002 156.348 519.871 156.348 521.608C156.348 521.828 156.29 522.226 156.175 522.802C155.537 521.954 154.459 521.53 152.941 521.53C150.125 521.53 147.331 522.953 144.557 525.8C141.783 528.658 139.627 531.813 138.089 535.267C136.54 538.721 135.765 541.605 135.765 543.918C135.765 545.164 136.037 546.153 136.582 546.885C137.115 547.608 137.853 547.969 138.795 547.969C141.223 547.969 144.227 545.786 147.807 541.422C151.397 537.047 154.506 531.463 157.133 524.67L160.446 516.098L163.633 508.154C164.983 504.815 166.139 502.208 167.102 500.335L170.085 494.416C171.216 492.312 172.252 490.789 173.194 489.847C174.125 488.916 174.952 488.45 175.675 488.45C176.114 488.45 176.507 488.633 176.852 489C177.197 489.376 177.37 489.853 177.37 490.428C177.37 491.569 176.35 494.332 174.309 498.718L167.636 512.628C165.208 517.537 162.973 522.974 160.932 528.94C158.891 534.896 157.871 539.779 157.871 543.588C157.871 544.886 157.897 545.802 157.949 546.336C158.012 546.88 158.185 547.346 158.467 547.733C158.76 548.12 159.21 548.314 159.818 548.314C161.691 548.314 163.915 547.137 166.49 544.782C169.054 542.437 171.19 539.433 172.896 535.77L173.9 536.555C172.268 540.857 169.85 544.457 166.647 547.356C163.444 550.256 160.383 551.705 157.463 551.705C155.526 551.705 154.108 551.083 153.208 549.837C152.318 548.591 151.873 547.1 151.873 545.363C151.873 543.437 152.412 540.417 153.49 536.304C150.612 541.045 147.629 544.855 144.541 547.733C141.454 550.601 138.664 552.035 136.173 552.035C134.551 552.035 133.086 551.428 131.777 550.214C130.459 549 129.799 547.231 129.799 544.907ZM169.552 542.725C169.552 541.207 169.792 539.92 170.274 538.863C170.755 537.816 171.294 537.11 171.891 536.743C172.477 536.366 173.094 536.042 173.743 535.77C174.392 535.487 174.801 535.262 174.968 535.095C178.579 531.149 181.379 527.051 183.368 522.802V521.765C183.368 519.84 183.692 518.4 184.341 517.448C184.99 516.495 185.77 516.019 186.68 516.019C187.591 516.019 188.046 516.391 188.046 517.134C188.046 517.249 187.957 517.699 187.779 518.484C187.601 519.269 187.512 520.059 187.512 520.855C187.512 522.54 188.25 525.675 189.726 530.259C191.202 534.844 191.94 538.512 191.94 541.265C191.94 542.782 191.762 544.18 191.406 545.457C195.603 544.703 199.162 541.5 202.082 535.848L202.867 536.712C200.878 542.542 196.917 545.896 190.982 546.776C189.245 551.465 185.634 553.809 180.149 553.809C176.475 553.809 173.791 552.715 172.095 550.528C170.399 548.33 169.552 545.729 169.552 542.725ZM173.351 542.631C173.351 544.787 173.989 546.697 175.266 548.361C176.533 550.036 178.213 550.873 180.306 550.873C182.902 550.873 184.681 549.481 185.644 546.697C183.383 546.257 181.321 545.373 179.458 544.044C177.595 542.714 176.182 541.249 175.219 539.648C173.974 539.711 173.351 540.705 173.351 542.631ZM175.549 537.042C177.642 541.511 181.149 544.284 186.068 545.363C186.288 543.908 186.408 542.573 186.429 541.359C186.429 539.779 186.288 538.114 186.005 536.366C185.712 534.608 185.309 532.666 184.796 530.542C184.294 528.417 183.959 526.915 183.791 526.036C180.892 530.777 178.145 534.446 175.549 537.042ZM200.057 543.416C200.057 537.816 202.051 532.656 206.038 527.936C210.026 523.215 214.213 520.855 218.598 520.855C220.754 520.855 222.298 521.462 223.23 522.676C224.172 523.89 224.643 525.371 224.643 527.119C224.643 528.794 224.256 530.249 223.481 531.484C222.706 532.708 221.676 533.321 220.388 533.321C219.415 533.321 218.598 532.891 217.939 532.033C218.797 531.646 219.535 530.756 220.153 529.364C220.77 527.972 221.079 526.627 221.079 525.329C221.079 523.927 220.461 523.226 219.226 523.226C216.296 523.226 213.245 525.622 210.073 530.416C206.902 535.22 205.316 539.747 205.316 543.997C205.316 548.696 207.373 551.046 211.486 551.046C214.93 551.046 218.337 549.628 221.707 546.791C225.077 543.965 227.657 540.26 229.447 535.676L230.562 536.555C228.636 541.683 225.684 545.917 221.707 549.256C217.73 552.595 213.674 554.264 209.539 554.264C206.724 554.264 204.437 553.333 202.679 551.47C200.931 549.607 200.057 546.922 200.057 543.416ZM225.632 546.446C225.632 543.107 226.809 539.407 229.164 535.346C231.509 531.295 234.544 527.799 238.27 524.858C241.997 521.917 245.608 520.447 249.103 520.447C251.312 520.447 253.149 521.038 254.614 522.221C256.079 523.414 256.812 524.932 256.812 526.774C256.812 529.202 255.431 530.416 252.667 530.416C252.95 529.401 253.091 528.422 253.091 527.48C253.091 524.309 251.71 522.723 248.946 522.723C246.466 522.723 243.823 524.152 241.018 527.009C238.213 529.867 235.921 533.169 234.141 536.916C232.362 540.673 231.472 543.934 231.472 546.697C231.472 548.905 232.231 550.01 233.749 550.01C234.775 550.01 235.968 549.533 237.328 548.581C238.7 547.629 239.945 546.556 241.065 545.363C242.174 544.18 243.509 542.578 245.069 540.558C246.628 538.549 247.785 537.005 248.538 535.927L251.553 531.547C253.813 531.934 254.944 532.635 254.944 533.65C254.944 534.09 254.133 535.78 252.51 538.721C250.878 541.663 250.061 543.908 250.061 545.457C250.061 546.42 250.297 547.278 250.768 548.032C251.239 548.796 251.956 549.178 252.919 549.178C254.551 549.178 256.613 548.005 259.104 545.661C261.606 543.316 264.071 540.019 266.499 535.77L267.331 536.633C265.583 541.155 263.113 544.855 259.921 547.733C256.718 550.601 253.599 552.035 250.564 552.035C248.575 552.035 247.057 551.454 246.011 550.292C244.953 549.131 244.425 547.738 244.425 546.116C244.425 545.425 244.524 544.609 244.723 543.667C242.18 547.069 239.903 549.554 237.894 551.124C235.874 552.694 233.874 553.479 231.896 553.479C230.012 553.479 228.5 552.872 227.359 551.658C226.208 550.444 225.632 548.707 225.632 546.446ZM256.765 570.121C256.765 569.682 256.896 569.033 257.158 568.175C257.419 567.316 257.906 565.971 258.618 564.14C259.319 562.308 259.863 560.796 260.25 559.602C262.124 554.17 263.626 548.675 264.756 543.117C265.887 537.549 267.075 529.621 268.32 519.332C268.373 518.777 268.498 518.395 268.697 518.186C268.885 517.987 269.299 517.888 269.937 517.888C271.288 517.888 272.303 518.264 272.983 519.018C273.653 519.782 273.988 520.698 273.988 521.765C273.988 523.346 273.339 527.171 272.041 533.242C273.779 529.84 275.914 526.915 278.447 524.466C280.969 522.006 283.722 520.776 286.705 520.776C289.186 520.776 291.232 521.666 292.844 523.445C294.455 525.225 295.261 527.548 295.261 530.416C295.261 535.283 293.304 540.045 289.39 544.703C285.475 549.371 280.77 551.705 275.275 551.705C273.862 551.705 272.69 551.554 271.759 551.25C270.817 550.946 270.346 550.585 270.346 550.167C270.346 549.895 271.052 549.759 272.465 549.759C276.871 549.759 280.859 547.775 284.428 543.808C287.987 539.852 289.766 535.655 289.766 531.217C289.766 529.28 289.358 527.705 288.542 526.491C287.725 525.277 286.517 524.67 284.915 524.67C282.267 524.67 279.603 526.167 276.924 529.16C274.255 532.154 272.23 535.21 270.848 538.329C265.876 559.419 262.412 570.912 260.455 572.806C260.182 573.089 259.837 573.23 259.418 573.23C258.78 573.23 258.157 572.759 257.55 571.817C257.006 570.959 256.744 570.394 256.765 570.121ZM296.674 543.416C296.674 538.235 299.05 532.871 303.802 527.323C308.544 521.776 313.358 519.002 318.246 519.002C321.721 519.002 323.459 520.698 323.459 524.089C323.459 528.286 321.255 531.965 316.849 535.126C312.453 538.287 307.659 540.113 302.468 540.605C302.248 541.568 302.122 542.589 302.091 543.667C302.091 548.419 304.331 550.795 308.811 550.795C312.254 550.795 315.729 549.35 319.235 546.462C322.742 543.583 325.599 540.019 327.808 535.77L328.844 536.555C326.583 541.579 323.443 545.614 319.424 548.66C315.405 551.705 311.27 553.228 307.021 553.228C303.682 553.228 301.123 552.312 299.343 550.481C297.564 548.649 296.674 546.294 296.674 543.416ZM302.892 538.988C306.838 537.586 310.632 535.472 314.274 532.646C317.917 529.809 319.738 526.779 319.738 523.555C319.738 522.257 319.141 521.608 317.948 521.608C315.3 521.608 312.427 523.456 309.329 527.151C306.22 530.845 304.074 534.791 302.892 538.988ZM345.815 546.446C345.815 543.107 346.988 539.407 349.332 535.346C351.677 531.295 354.712 527.799 358.438 524.858C362.164 521.917 365.781 520.447 369.287 520.447C371.495 520.447 373.332 521.038 374.798 522.221C376.252 523.414 376.98 524.932 376.98 526.774C376.98 529.202 375.604 530.416 372.851 530.416C373.123 529.401 373.259 528.422 373.259 527.48C373.259 524.309 371.877 522.723 369.114 522.723C366.634 522.723 363.991 524.152 361.186 527.009C358.391 529.867 356.104 533.169 354.325 536.916C352.545 540.673 351.656 543.934 351.656 546.697C351.656 548.905 352.415 550.01 353.932 550.01C354.948 550.01 356.141 549.533 357.512 548.581C358.873 547.629 360.113 546.556 361.233 545.363C362.353 544.18 363.692 542.578 365.252 540.558C366.812 538.549 367.963 537.005 368.706 535.927L371.72 531.547C373.992 531.934 375.127 532.635 375.127 533.65C375.127 534.09 374.311 535.78 372.678 538.721C371.045 541.663 370.229 543.908 370.229 545.457C370.229 546.42 370.464 547.278 370.935 548.032C371.406 548.796 372.123 549.178 373.086 549.178C374.719 549.178 376.786 548.005 379.288 545.661C381.779 543.316 384.239 540.019 386.667 535.77L387.499 536.633C385.761 541.155 383.291 544.855 380.089 547.733C376.886 550.601 373.767 552.035 370.731 552.035C368.743 552.035 367.225 551.454 366.178 550.292C365.132 549.131 364.608 547.738 364.608 546.116C364.608 545.425 364.703 544.609 364.891 543.667C362.358 547.069 360.081 549.554 358.061 551.124C356.052 552.694 354.053 553.479 352.064 553.479C350.19 553.479 348.678 552.872 347.527 551.658C346.386 550.444 345.815 548.707 345.815 546.446ZM381.706 548.926C381.706 548.759 382.203 547.43 383.197 544.939C384.191 542.437 385.196 539.538 386.212 536.241C387.237 532.944 387.75 530.217 387.75 528.061C388.828 526.878 390.126 526.287 391.644 526.287C393.161 526.287 393.92 527.02 393.92 528.485C393.92 530.411 393.02 534.132 391.22 539.648C397.741 529.715 403.623 524.748 408.867 524.748C410.908 524.748 412.457 525.502 413.514 527.009C414.581 528.516 415.115 530.301 415.115 532.363C415.115 534.247 414.534 536.628 413.373 539.506C412.211 542.395 411.63 544.489 411.63 545.786C411.63 547.932 412.488 549.005 414.205 549.005C417.711 549.005 421.657 544.593 426.042 535.77L426.984 536.885C422.934 546.43 418.051 551.203 412.336 551.203C410.4 551.203 408.924 550.706 407.909 549.711C406.883 548.717 406.37 547.409 406.37 545.786C406.37 544.656 406.784 542.746 407.611 540.056C408.448 537.356 408.867 535.33 408.867 533.98C408.867 531.227 407.731 529.851 405.46 529.851C404.11 529.851 402.655 530.385 401.095 531.452C399.536 532.53 398.164 533.692 396.982 534.938C395.789 536.183 394.386 537.989 392.774 540.354C391.162 542.73 390.011 544.483 389.32 545.614L386.212 550.795C384.118 550.795 382.616 550.172 381.706 548.926ZM423.059 544.907C423.059 541.788 424.206 538.203 426.498 534.153C428.79 530.092 431.757 526.549 435.4 523.524C439.042 520.509 442.533 519.002 445.872 519.002C448.352 519.002 449.592 519.871 449.592 521.608C449.592 521.828 449.54 522.226 449.435 522.802C448.797 521.954 447.719 521.53 446.201 521.53C443.386 521.53 440.591 522.953 437.817 525.8C435.044 528.658 432.882 531.813 431.333 535.267C429.795 538.721 429.025 541.605 429.025 543.918C429.025 545.164 429.292 546.153 429.826 546.885C430.36 547.608 431.098 547.969 432.04 547.969C434.468 547.969 437.477 545.786 441.067 541.422C444.657 537.047 447.761 531.463 450.377 524.67L453.69 516.098L456.877 508.154C458.227 504.815 459.389 502.208 460.363 500.335L463.33 494.416C464.471 492.312 465.507 490.789 466.439 489.847C467.381 488.916 468.207 488.45 468.919 488.45C469.369 488.45 469.767 488.633 470.112 489C470.458 489.376 470.63 489.853 470.63 490.428C470.63 491.569 469.605 494.332 467.553 498.718L460.896 512.628C458.468 517.537 456.234 522.974 454.193 528.94C452.152 534.896 451.131 539.779 451.131 543.588C451.131 544.886 451.157 545.802 451.21 546.336C451.262 546.88 451.435 547.346 451.728 547.733C452.021 548.12 452.471 548.314 453.078 548.314C454.951 548.314 457.17 547.137 459.735 544.782C462.299 542.437 464.439 539.433 466.156 535.77L467.145 536.555C465.512 540.857 463.1 544.457 459.907 547.356C456.705 550.256 453.638 551.705 450.707 551.705C448.781 551.705 447.368 551.083 446.468 549.837C445.568 548.591 445.118 547.1 445.118 545.363C445.118 543.437 445.657 540.417 446.735 536.304C443.867 541.045 440.889 544.855 437.802 547.733C434.704 550.601 431.914 552.035 429.434 552.035C427.801 552.035 426.33 551.428 425.022 550.214C423.714 549 423.059 547.231 423.059 544.907ZM483.206 556.965C483.374 555.499 483.829 554.285 484.572 553.322C485.315 552.349 486.378 551.658 487.759 551.25C489.141 550.831 490.507 550.549 491.857 550.402C493.207 550.245 494.934 550.167 497.038 550.167C499.414 545.038 502.407 534.786 506.018 519.41C509.629 504.035 511.78 495.384 512.471 493.458C504.966 493.626 498.608 494.191 493.395 495.154C494.191 490.821 499.832 488.654 510.32 488.654C510.372 488.654 510.44 488.654 510.524 488.654C510.587 488.654 510.645 488.654 510.697 488.654C517.542 488.654 524.937 489.245 532.881 490.428C530.924 492.396 528.291 493.38 524.984 493.38C524.921 493.38 524.879 493.38 524.858 493.38C524.795 493.38 524.738 493.38 524.686 493.38C520.269 493.38 517.176 493.406 515.407 493.458C511.22 515.951 508.436 530.055 507.054 535.77C505.066 543.578 502.69 548.403 499.927 550.245C501.559 550.36 504.537 550.648 508.86 551.109C513.172 551.559 516.323 551.81 518.311 551.862C515.883 554.291 512.696 555.505 508.75 555.505H503.569C500.816 555.505 498.943 555.541 497.948 555.615C496.954 555.688 495.421 555.761 493.348 555.834C491.276 555.918 489.46 556.059 487.9 556.258C486.341 556.447 484.776 556.682 483.206 556.965ZM522.205 540.197L521.451 538.737C524.162 533.493 526.454 528.129 528.328 522.645C527.773 522.09 527.485 521.415 527.464 520.619C527.464 519.102 527.904 517.751 528.783 516.569C529.662 515.396 530.411 514.81 531.028 514.81C531.824 514.81 532.222 515.501 532.222 516.883C532.222 517.103 532.07 517.647 531.766 518.516C531.463 519.384 531.311 519.876 531.311 519.991C531.311 520.682 531.761 521.404 532.661 522.158C533.551 522.922 534.535 523.644 535.613 524.325C536.691 524.994 537.685 525.999 538.596 527.339C539.506 528.679 539.962 530.16 539.962 531.782C539.962 533.666 539.25 536.257 537.826 539.554C536.403 542.851 535.691 545.038 535.691 546.116C535.691 547.801 536.549 548.654 538.266 548.675C540.747 548.675 543.473 547.262 546.446 544.436C549.408 541.61 551.485 538.8 552.679 536.005L553.746 536.885C552.009 540.778 549.471 544.222 546.132 547.215C542.793 550.209 539.428 551.705 536.037 551.705C534.1 551.705 532.588 551.203 531.499 550.198C530.411 549.183 529.867 547.848 529.867 546.195C529.867 544.509 530.636 541.814 532.174 538.109C533.723 534.393 534.498 531.803 534.498 530.338C534.498 529.783 534.414 529.239 534.247 528.705C534.079 528.171 533.928 527.742 533.792 527.417C533.656 527.103 533.368 526.753 532.928 526.366L531.97 525.502C531.803 525.335 531.426 525.057 530.84 524.67C530.243 524.283 529.887 524.037 529.772 523.932C527.124 530.714 524.602 536.136 522.205 540.197ZM551.674 540.197L550.936 538.737C553.636 533.493 555.923 528.129 557.797 522.645C557.253 522.09 556.965 521.415 556.933 520.619C556.933 519.102 557.373 517.751 558.252 516.569C559.142 515.396 559.89 514.81 560.497 514.81C561.293 514.81 561.69 515.501 561.69 516.883C561.69 517.103 561.539 517.647 561.235 518.516C560.932 519.384 560.78 519.876 560.78 519.991C560.78 520.682 561.23 521.404 562.13 522.158C563.03 522.922 564.019 523.644 565.097 524.325C566.165 524.994 567.154 525.999 568.065 527.339C568.975 528.679 569.431 530.16 569.431 531.782C569.431 533.666 568.724 536.257 567.311 539.554C565.888 542.851 565.176 545.038 565.176 546.116C565.176 547.801 566.029 548.654 567.735 548.675C570.226 548.675 572.953 547.262 575.915 544.436C578.877 541.61 580.954 538.8 582.148 536.005L583.215 536.885C581.478 540.778 578.939 544.222 575.601 547.215C572.262 550.209 568.897 551.705 565.506 551.705C563.569 551.705 562.057 551.203 560.968 550.198C559.88 549.183 559.335 547.848 559.335 546.195C559.335 544.509 560.11 541.814 561.659 538.109C563.198 534.393 563.967 531.803 563.967 530.338C563.967 529.783 563.888 529.239 563.731 528.705C563.564 528.171 563.412 527.742 563.276 527.417C563.13 527.103 562.837 526.753 562.397 526.366L561.439 525.502C561.282 525.335 560.905 525.057 560.309 524.67C559.712 524.283 559.362 524.037 559.257 523.932C556.609 530.714 554.081 536.136 551.674 540.197ZM579.902 544.578C579.902 542.369 580.499 539.402 581.692 535.676C582.875 531.949 584.455 528.537 586.434 525.439C588.401 522.331 590.296 520.776 592.117 520.776C593.363 520.776 593.985 521.399 593.985 522.645C593.985 523.335 593.247 524.884 591.772 527.292C590.296 529.71 588.825 532.462 587.36 535.55C585.895 538.648 585.162 541.354 585.162 543.667C585.162 545.656 585.486 547.001 586.135 547.702C586.784 548.414 587.841 548.769 589.307 548.769C593.724 548.769 598.073 544.436 602.353 535.77L603.138 536.633C601.558 541.375 599.224 545.075 596.136 547.733C593.049 550.381 589.804 551.705 586.402 551.705C584.309 551.705 582.702 551.041 581.582 549.711C580.462 548.393 579.902 546.681 579.902 544.578ZM593.122 510.1C593.122 508.97 593.802 507.949 595.163 507.039C596.534 506.128 597.921 505.673 599.323 505.673C601.176 505.673 602.102 506.5 602.102 508.154C602.102 509.336 601.521 510.42 600.36 511.403C599.198 512.387 597.942 512.879 596.592 512.879C596.56 512.879 596.534 512.879 596.513 512.879C594.252 512.879 593.122 511.953 593.122 510.1ZM599.041 568.347C599.041 567.217 599.25 566.139 599.669 565.113C600.098 564.087 600.82 563.093 601.835 562.13C602.84 561.167 603.73 560.346 604.504 559.665C605.279 558.995 606.503 558.205 608.178 557.295L611.742 555.348C612.433 554.96 613.705 554.312 615.557 553.401C617.127 549.34 618.577 544.677 619.906 539.412C614.882 546.634 610.271 550.245 606.074 550.245C604.086 550.245 602.526 549.502 601.396 548.016C600.265 546.53 599.7 544.541 599.7 542.05C599.7 538.324 600.946 534.723 603.437 531.248C605.938 527.773 608.916 525.041 612.37 523.053C615.814 521.064 619.084 520.07 622.183 520.07C625.239 520.07 626.767 520.98 626.767 522.802C626.767 523.712 626.422 524.277 625.731 524.497C625.103 523.649 623.972 523.226 622.34 523.226C618.142 523.226 614.259 525.46 610.69 529.929C607.111 534.399 605.321 538.58 605.321 542.474C605.321 545.226 606.305 546.603 608.272 546.603C609.79 546.603 611.69 545.561 613.971 543.479C616.264 541.396 618.545 538.716 620.817 535.44L621.837 530.919C622.476 528.051 623.915 526.617 626.155 526.617C626.647 526.617 627.238 526.7 627.929 526.868C627.929 528.386 627.306 531.447 626.06 536.052C624.825 540.658 623.282 545.336 621.429 550.088C624.36 548.675 627.081 546.713 629.593 544.201C632.094 541.699 633.984 538.889 635.261 535.77L636.328 536.633C635.146 540.087 633.016 543.222 629.938 546.038C626.861 548.843 623.705 551.02 620.471 552.569C614.767 566.343 609.277 573.23 604.002 573.23C603.971 573.23 603.955 573.23 603.955 573.23C602.605 573.23 601.448 572.822 600.485 572.005C599.522 571.189 599.041 569.97 599.041 568.347ZM601.678 567.562C601.678 568.473 601.862 569.195 602.228 569.729C602.584 570.263 603.081 570.53 603.719 570.53C605.017 570.53 606.634 569.305 608.571 566.856C610.517 564.396 612.543 560.686 614.647 555.725C610.502 557.818 607.304 559.759 605.054 561.549C602.804 563.349 601.678 565.354 601.678 567.562ZM631.493 546.446C631.493 543.107 632.665 539.407 635.009 535.346C637.354 531.295 640.389 527.799 644.115 524.858C647.842 521.917 651.458 520.447 654.964 520.447C657.173 520.447 659.009 521.038 660.475 522.221C661.93 523.414 662.657 524.932 662.657 526.774C662.657 529.202 661.281 530.416 658.528 530.416C658.8 529.401 658.936 528.422 658.936 527.48C658.936 524.309 657.555 522.723 654.791 522.723C652.311 522.723 649.668 524.152 646.863 527.009C644.068 529.867 641.781 533.169 640.002 536.916C638.223 540.673 637.333 543.934 637.333 546.697C637.333 548.905 638.092 550.01 639.61 550.01C640.625 550.01 641.818 549.533 643.189 548.581C644.55 547.629 645.79 546.556 646.91 545.363C648.03 544.18 649.37 542.578 650.929 540.558C652.489 538.549 653.64 537.005 654.383 535.927L657.398 531.547C659.669 531.934 660.805 532.635 660.805 533.65C660.805 534.09 659.988 535.78 658.355 538.721C656.723 541.663 655.906 543.908 655.906 545.457C655.906 546.42 656.142 547.278 656.613 548.032C657.084 548.796 657.801 549.178 658.764 549.178C660.396 549.178 662.464 548.005 664.965 545.661C667.456 543.316 669.916 540.019 672.344 535.77L673.176 536.633C671.439 541.155 668.969 544.855 665.766 547.733C662.563 550.601 659.444 552.035 656.409 552.035C654.42 552.035 652.902 551.454 651.856 550.292C650.809 549.131 650.286 547.738 650.286 546.116C650.286 545.425 650.38 544.609 650.568 543.667C648.035 547.069 645.759 549.554 643.739 551.124C641.729 552.694 639.73 553.479 637.741 553.479C635.868 553.479 634.355 552.872 633.204 551.658C632.063 550.444 631.493 548.707 631.493 546.446ZM670.272 545.001C670.272 540.145 671.915 533.342 675.201 524.591C673.851 524.372 672.831 524.152 672.14 523.932V522.393C674.181 522.613 675.421 522.723 675.861 522.723C678.352 516.297 681.026 510.713 683.884 505.971C686.73 501.24 688.97 498.875 690.603 498.875C691.043 498.875 691.451 499.048 691.828 499.393C692.194 499.738 692.377 500.188 692.377 500.743C692.377 501.601 691.828 503.077 690.729 505.171C689.619 507.264 688.065 510.064 686.066 513.57C684.067 517.076 682.418 520.211 681.12 522.974H684.276C688.965 522.974 693.005 522.807 696.396 522.472V524.011C690.629 524.67 685.925 525 682.282 525C682.146 525 682.01 525 681.874 525C681.706 525 681.565 525 681.45 525H680.178C677.08 532.012 675.531 538.109 675.531 543.29C675.531 545.917 675.897 547.733 676.63 548.738C677.363 549.743 678.572 550.245 680.257 550.245C683.125 550.245 685.982 548.963 688.829 546.399C691.666 543.834 694.188 540.291 696.396 535.77L697.48 536.633C695.376 541.542 692.545 545.567 688.986 548.707C685.427 551.836 681.701 553.401 677.808 553.401C672.784 553.401 670.272 550.601 670.272 545.001ZM694.324 544.578C694.324 542.369 694.921 539.402 696.114 535.676C697.297 531.949 698.877 528.537 700.855 525.439C702.823 522.331 704.717 520.776 706.539 520.776C707.784 520.776 708.407 521.399 708.407 522.645C708.407 523.335 707.669 524.884 706.193 527.292C704.717 529.71 703.247 532.462 701.782 535.55C700.316 538.648 699.584 541.354 699.584 543.667C699.584 545.656 699.908 547.001 700.557 547.702C701.206 548.414 702.263 548.769 703.728 548.769C708.145 548.769 712.489 544.436 716.759 535.77L717.56 536.633C715.98 541.375 713.646 545.075 710.558 547.733C707.47 550.381 704.226 551.705 700.824 551.705C698.731 551.705 697.124 551.041 696.004 549.711C694.884 548.393 694.324 546.681 694.324 544.578ZM707.528 510.1C707.528 508.97 708.213 507.949 709.584 507.039C710.956 506.128 712.342 505.673 713.745 505.673C715.598 505.673 716.524 506.5 716.524 508.154C716.524 509.336 715.943 510.42 714.781 511.403C713.619 512.387 712.363 512.879 711.013 512.879C710.982 512.879 710.956 512.879 710.935 512.879C708.663 512.879 707.528 511.953 707.528 510.1ZM714.326 544.499C714.326 540.888 715.352 537.287 717.403 533.697C719.465 530.107 721.684 528.312 724.06 528.312C724.552 528.312 725.143 528.448 725.834 528.721C724.756 529.631 723.484 531.881 722.019 535.472C720.564 539.062 719.837 541.877 719.837 543.918C719.837 547.152 720.841 548.769 722.851 548.769C725.332 548.769 728.367 546.503 731.957 541.971C730.387 540.673 729.157 538.978 728.267 536.885C727.388 534.781 726.949 532.598 726.949 530.338C726.949 527.417 727.692 524.905 729.178 522.802C730.675 520.708 732.69 519.662 735.223 519.662C739.116 519.662 741.079 521.844 741.11 526.209C741.11 530.615 739.205 535.634 735.395 541.265C736.421 541.82 737.499 542.113 738.629 542.144C740.252 542.144 741.947 541.647 743.716 540.653C745.485 539.658 746.809 538.109 747.688 536.005L748.725 536.885C747.647 539.365 746.124 541.197 744.156 542.38C742.178 543.573 740.142 544.169 738.049 544.169C736.531 544.169 735.175 543.876 733.982 543.29C729.461 549.225 725.127 552.208 720.983 552.239C718.67 552.239 716.979 551.527 715.912 550.104C714.854 548.68 714.326 546.812 714.326 544.499ZM730.591 530.589C730.591 534.43 731.544 537.481 733.448 539.742C736.735 534.885 738.378 530.536 738.378 526.695C738.378 523.524 737.536 521.938 735.851 521.938C734.605 521.938 733.417 522.802 732.287 524.529C731.156 526.256 730.591 528.276 730.591 530.589ZM742.853 548.926C742.853 548.759 743.35 547.43 744.344 544.939C745.328 542.437 746.333 539.538 747.359 536.241C748.384 532.944 748.897 530.217 748.897 528.061C749.965 526.878 751.257 526.287 752.775 526.287C754.293 526.287 755.052 527.02 755.052 528.485C755.052 530.411 754.157 534.132 752.367 539.648C758.877 529.715 764.754 524.748 769.998 524.748C772.039 524.748 773.593 525.502 774.661 527.009C775.718 528.516 776.247 530.301 776.247 532.363C776.247 534.247 775.671 536.628 774.52 539.506C773.358 542.395 772.777 544.489 772.777 545.786C772.777 547.932 773.63 549.005 775.336 549.005C778.842 549.005 782.794 544.593 787.19 535.77L788.132 536.885C784.081 546.43 779.198 551.203 773.483 551.203C771.547 551.203 770.071 550.706 769.056 549.711C768.03 548.717 767.517 547.409 767.517 545.786C767.517 544.656 767.931 542.746 768.758 540.056C769.585 537.356 769.998 535.33 769.998 533.98C769.998 531.227 768.868 529.851 766.607 529.851C765.257 529.851 763.802 530.385 762.242 531.452C760.683 532.53 759.312 533.692 758.129 534.938C756.936 536.183 755.533 537.989 753.921 540.354C752.309 542.73 751.158 544.483 750.467 545.614L747.359 550.795C745.265 550.795 743.763 550.172 742.853 548.926Z" fill="#7C8474"/>
</svg>
