<svg width="1148" height="210" viewBox="0 0 1148 210" fill="none" xmlns="http://www.w3.org/2000/svg">
<path d="M259.939 97.7253L290.158 100.796C290.715 100.853 291.26 100.828 291.788 100.743C282.372 93.1248 272.753 85.7684 262.805 78.8469C260.554 77.2809 258.287 75.7417 256.01 74.222L254.32 90.838C253.97 94.2902 256.484 97.3735 259.939 97.7253Z" fill="#919397"/>
<path d="M277.453 109.579L275.638 127.468C275.286 130.92 277.802 134.006 281.255 134.355L327.626 139.066C328.376 139.141 329.106 139.075 329.798 138.899C329.38 138.272 328.955 137.646 328.52 137.025C324.318 131.015 319.48 125.547 314.303 120.368C308.953 115.015 303.214 110.102 297.382 105.286L284.34 103.962C280.888 103.61 277.805 106.124 277.453 109.579Z" fill="#505543"/>
<path d="M256.026 132.791L263.91 133.592C267.452 133.951 270.611 131.41 270.966 127.914L272.857 109.324C273.211 105.828 270.628 102.703 267.083 102.344L259.199 101.543C255.659 101.181 252.5 103.725 252.143 107.218L250.257 125.811C249.901 129.304 252.485 132.432 256.026 132.791Z" fill="#E30606"/>
<path d="M293.767 183.747L291.624 204.848C291.463 206.432 292.062 207.949 293.168 209.175C293.706 209.195 294.239 209.222 294.778 209.229C302.516 209.334 309.997 207.963 317.239 205.293C320.244 204.189 323.08 202.715 325.741 200.942C328.58 199.046 330.771 196.485 332.665 193.668C335.105 190.033 336.904 186.114 338.132 181.936L302.255 178.294C297.918 177.851 294.119 180.295 293.767 183.747Z" fill="#919397"/>
<path d="M339.99 169.378C339.939 163.871 339.001 158.501 337.149 153.302C336.426 151.271 335.58 149.305 334.65 147.384C331.315 147.812 328.691 149.967 328.402 152.808L326.585 170.695C326.233 174.149 329.463 177.306 333.799 177.746L339.037 178.278C339.658 175.344 340.015 172.38 339.99 169.378Z" fill="#505543"/>
<path d="M315.377 143.231L305.478 142.224C301.029 141.772 297.132 144.279 296.773 147.822L294.86 166.661C294.498 170.201 297.813 173.441 302.26 173.893L312.16 174.899C316.606 175.349 320.506 172.844 320.865 169.304L322.778 150.463C323.139 146.92 319.824 143.683 315.377 143.231Z" fill="#E30606"/>
<path d="M156.62 115.583L194.564 119.438C198.901 119.878 202.7 117.437 203.052 113.982L205.197 92.8809C205.546 89.4287 202.314 86.2721 197.98 85.8299L160.033 81.977C155.698 81.5348 151.899 83.978 151.548 87.4302L149.402 108.532C149.053 111.984 152.285 115.141 156.62 115.583Z" fill="#919397"/>
<path d="M242.372 78.9459L220.13 76.686C215.793 76.2462 211.994 78.687 211.642 82.1416L208.544 112.62C208.195 116.072 211.425 119.229 215.759 119.671L238.006 121.931C242.338 122.371 246.14 119.928 246.492 116.475L249.587 85.9945C249.939 82.5423 246.707 79.3857 242.372 78.9459Z" fill="#6A8643"/>
<path d="M179.054 45.1707L177.236 63.062C176.884 66.5142 180.117 69.6708 184.453 70.1105L242.679 76.0279C246.835 76.4481 250.487 74.2224 251.095 70.9974C244.885 66.998 238.562 63.1842 232.095 59.5927C226.93 56.7244 221.682 54.0174 216.341 51.4887C212.569 49.7052 208.772 47.973 204.873 46.4827C201.196 45.0705 197.48 43.7561 195.247 42.9352C190.798 41.611 187.793 40.6557 184.788 39.8324C181.7 40.409 179.327 42.4783 179.054 45.1707Z" fill="#505543"/>
<path d="M285.47 140.703L255.253 137.632C251.798 137.283 248.715 139.797 248.363 143.249L246.221 164.35C245.869 167.805 248.383 170.888 251.835 171.24L282.057 174.309C285.512 174.661 288.592 172.147 288.944 168.694L291.089 147.59C291.439 144.138 288.925 141.055 285.47 140.703Z" fill="#919397"/>
<path d="M238.94 126.775L221.225 124.974C217.773 124.625 214.687 127.139 214.338 130.591L211.24 161.072C210.89 164.526 213.404 167.607 216.859 167.959L234.572 169.76C238.024 170.111 241.11 167.595 241.459 164.14L244.557 133.662C244.906 130.21 242.392 127.126 238.94 126.775Z" fill="#6A8643"/>
<path d="M256.248 176.746L209.879 172.035C209.43 171.991 208.99 171.994 208.562 172.04C210.81 172.648 212.875 173.711 214.917 174.806C223.05 179.159 230.92 183.965 238.811 188.734C242.513 190.972 246.18 193.278 249.95 195.394C252.838 197.016 255.826 198.47 258.838 199.851C259.275 200.053 259.717 200.246 260.16 200.444L261.865 183.633C262.214 180.181 259.7 177.097 256.248 176.746Z" fill="#505543"/>
<path d="M287.186 185.73C287.545 182.187 284.967 179.023 281.425 178.662L273.541 177.863C270 177.504 266.834 180.081 266.475 183.624L264.564 202.417C266.404 203.206 268.249 203.983 270.091 204.765C270.97 205.138 271.901 205.405 272.82 205.678C276.399 206.736 280.008 207.596 283.663 208.207C284.537 207.23 285.129 205.976 285.273 204.569L287.186 185.73Z" fill="#E30606"/>
<path d="M136.853 69.1971L139.201 46.0725C139.477 43.3582 138.133 40.8612 135.959 39.5199C132.895 41.0152 129.968 42.7864 127.156 44.7923C121.41 48.8919 116.345 53.7367 111.681 59.0164C109.192 61.8334 107.046 64.9215 104.862 67.9731C103.785 69.4829 102.729 71.0099 101.696 72.5491L129.306 75.3539C133.088 75.7374 136.467 72.9816 136.853 69.1971Z" fill="#919397"/>
<path d="M142.046 69.0002C141.697 72.4524 144.211 75.5357 147.663 75.8875L165.378 77.6881C168.83 78.0375 171.916 75.5235 172.268 72.0688L175.361 41.5903C175.527 39.9803 175.063 38.4557 174.176 37.2439C174 37.2121 173.822 37.1731 173.648 37.1389C171.252 36.6966 168.879 36.1176 166.473 35.7658C163.807 35.3847 161.132 35.0744 158.432 34.9791C156.309 34.9082 154.191 34.8203 152.065 34.9156C150.033 35.006 148.049 35.3309 146.089 35.7976C145.584 36.5965 145.246 37.5175 145.144 38.5192L142.046 69.0002Z" fill="#6A8643"/>
<path d="M89.7129 107.16L136.084 111.871C139.539 112.222 142.622 109.708 142.971 106.254L144.789 88.3649C145.141 84.9127 142.627 81.8295 139.172 81.4776L98.5303 77.3487C96.8078 80.0997 95.1563 82.8971 93.5877 85.7459C91.6479 89.264 89.8717 92.8628 88.2054 96.5202C87.0474 99.0562 85.9968 101.636 85.0293 104.243C86.0237 105.829 87.707 106.957 89.7129 107.16Z" fill="#505543"/>
<path d="M154.029 163.733C154.398 160.097 150.997 156.77 146.431 156.308L106.463 152.248C101.896 151.783 97.8946 154.356 97.5256 157.991L95.2657 180.217C94.8968 183.852 98.3001 187.18 102.866 187.642L142.832 191.702C143.821 191.802 144.781 191.756 145.688 191.59C147.584 190.495 149.397 189.291 151.136 187.986C151.476 187.363 151.698 186.684 151.771 185.958L154.029 163.733Z" fill="#919397"/>
<path d="M189.2 160.4L166.955 158.14C162.621 157.703 158.82 160.143 158.47 163.596L156.459 183.38C156.762 183.092 157.068 182.806 157.368 182.508C159.714 180.185 162.335 178.286 165.255 176.772C171.096 173.744 177.212 171.524 183.718 170.436C187.871 169.743 192.025 169.532 196.173 169.816L196.415 167.451C196.767 163.999 193.534 160.842 189.2 160.4Z" fill="#6A8643"/>
<path d="M200.416 125.758L142.188 119.843C137.851 119.401 134.052 121.844 133.7 125.299L131.882 143.185C131.533 146.637 134.763 149.796 139.099 150.236L197.327 156.151C201.664 156.593 205.461 154.15 205.813 150.698L207.63 132.809C207.982 129.357 204.75 126.2 200.416 125.758Z" fill="#505543"/>
<path d="M120.745 115.73L110.845 114.723C106.396 114.271 102.5 116.778 102.14 120.32L100.227 139.16C99.8659 142.702 103.181 145.94 107.628 146.392L117.528 147.396C121.974 147.848 125.873 145.343 126.233 141.803L128.148 122.962C128.507 119.419 125.192 116.182 120.745 115.73Z" fill="#E30606"/>
<path d="M76.1227 95.628L79.7752 85.3619C81.417 80.7492 79.3501 75.8017 75.1601 74.3114L52.8808 66.3858C48.6933 64.8954 43.9682 67.429 42.3264 72.0393L38.6738 82.3055C37.0345 86.9182 39.0989 91.8656 43.289 93.3559L65.5658 101.282C69.7558 102.772 74.4833 100.241 76.1227 95.628Z" fill="#6A8643"/>
<path d="M92.9512 63.7938L98.1405 55.5285C100.471 51.8125 99.9655 47.2951 97.0044 45.4407L81.2704 35.563C78.3142 33.7062 74.024 35.2136 71.6932 38.9272L66.5039 47.1949C64.1731 50.9085 64.6813 55.4259 67.6375 57.2827L83.374 67.158C86.3302 69.0148 90.618 67.5098 92.9512 63.7938Z" fill="#E30606"/>
<path d="M129.204 24.6596C129.971 26.448 132.048 27.2787 133.836 26.5091L143.02 22.5707C144.808 21.8011 145.639 19.7268 144.869 17.9384L138.09 2.13603C137.32 0.34519 135.246 -0.4806 133.457 0.286554L124.274 4.22738C122.485 4.99698 121.657 7.06879 122.424 8.85963L129.204 24.6596Z" fill="#505543"/>
<path d="M107.236 39.944C108.795 41.4147 111.25 41.3415 112.721 39.7852L120.263 31.7887C121.731 30.2275 121.66 27.7745 120.102 26.3038L106.342 13.3257C104.785 11.8573 102.328 11.9282 100.859 13.4869L93.3172 21.4834C91.8464 23.0446 91.9173 25.4975 93.4785 26.9683L107.236 39.944Z" fill="#919397"/>
<path d="M0.982583 140.856C0.374234 145.933 2.93956 150.411 6.71181 150.866L57.3929 156.949C61.1651 157.399 64.7175 153.656 65.3283 148.579L68.4848 122.29C69.0932 117.216 66.5279 112.735 62.7532 112.283L12.0746 106.197C8.29987 105.745 4.7475 109.493 4.13916 114.568L0.982583 140.856Z" fill="#505543"/>
<path d="M93.8065 140.627L95.9516 119.526C96.301 116.073 93.787 112.988 90.3348 112.638L82.4702 111.839C82.2284 112.621 81.9914 113.406 81.7593 114.192C80.7747 117.547 80.0173 120.967 79.233 124.378C78.6638 126.85 78.1238 129.337 77.7476 131.847C77.2419 135.23 76.956 138.634 77.0024 142.061C77.0146 143.127 77.0537 144.189 77.1026 145.247L86.9192 146.244C90.3714 146.596 93.4547 144.082 93.8065 140.627Z" fill="#919397"/>
<path d="M92.6034 157.683C92.9626 154.141 90.3826 150.979 86.84 150.618L78.9559 149.816C78.4501 149.765 77.9517 149.782 77.468 149.846C77.8149 153.147 78.3842 156.418 79.2808 159.65C80.9666 165.721 83.703 171.243 87.7366 176.127C88.4867 177.036 89.2367 177.945 89.9892 178.849C90.3581 178.145 90.6025 177.363 90.688 176.525L92.6034 157.683Z" fill="#E30606"/>
<path d="M390.046 81.2321C390.046 75.1615 391.71 70.7602 395.039 68.0284C398.378 65.3071 402.203 63.9464 406.515 63.9464C401.784 69.1065 399.419 74.8684 399.419 81.2321C399.419 86.3922 401.115 90.6783 404.506 94.0904C407.897 97.5026 412.769 99.2086 419.122 99.2086C425.465 99.2086 431.039 97.5444 435.843 94.216C440.637 90.8876 443.034 86.2875 443.034 80.4157C443.034 76.3965 441.683 72.7751 438.983 69.5513C436.283 66.3171 433.001 63.5487 429.139 61.246L417.709 54.4636C413.931 52.1505 410.692 49.3402 407.991 46.0327C405.291 42.7253 403.941 38.952 403.941 34.713C403.941 29.7309 405.395 24.6493 408.305 19.4683C411.215 14.2978 415.574 9.81805 421.383 6.02912C427.182 2.22972 433.603 0.330017 440.647 0.330017C449.659 0.330017 454.165 4.62659 454.165 13.2197C454.165 17.4901 453.129 22.2996 451.056 27.648C448.984 32.986 446.707 37.628 444.227 41.5739C441.38 40.9878 439.956 39.1404 439.956 36.0318C439.956 33.6454 441.223 29.1657 443.756 22.5926C446.299 16.0091 447.571 11.4823 447.571 9.01212C447.571 5.31739 445.158 3.47002 440.333 3.47002C432.787 3.47002 426.187 6.68852 420.535 13.1255C414.873 19.5625 412.042 25.7745 412.042 31.7614C412.042 35.2887 413.376 38.4444 416.045 41.2285C418.704 44.0127 421.917 46.4305 425.685 48.4819L436.879 55.0916C440.647 57.3106 443.86 60.2831 446.519 64.0092C449.188 67.7458 450.522 72.0215 450.522 76.8361C450.522 85.1781 447.095 91.8296 440.239 96.7908C433.383 101.762 425.622 104.248 416.956 104.248C409.409 104.248 403.035 102.254 397.833 98.2666C392.642 94.2893 390.046 88.6111 390.046 81.2321ZM458.498 85.4554C458.498 79.9604 460.058 74.4916 463.177 69.0489C466.306 63.5958 469.671 60.8692 473.272 60.8692C474.025 60.8692 474.926 61.0786 475.972 61.4972C474.339 62.8788 472.414 66.2962 470.195 71.7493C467.976 77.192 466.866 81.4624 466.866 84.5605C466.866 89.4694 468.394 91.9238 471.451 91.9238C475.219 91.9238 479.829 88.4855 485.282 81.6089C482.896 79.6412 481.033 77.0664 479.693 73.8845C478.343 70.7027 477.668 67.39 477.668 63.9464C477.668 59.5086 478.803 55.6935 481.075 52.5011C483.335 49.3193 486.392 47.7283 490.243 47.7283C496.157 47.7283 499.135 51.041 499.177 57.6664C499.177 64.3651 496.283 71.9901 490.495 80.5413C492.044 81.3787 493.682 81.8183 495.409 81.8601C497.879 81.8601 500.454 81.1065 503.133 79.5993C505.813 78.0921 507.822 75.7476 509.162 72.5657L510.732 73.8845C509.099 77.6525 506.786 80.4367 503.793 82.2369C500.799 84.0372 497.706 84.9373 494.514 84.9373C492.211 84.9373 490.16 84.4977 488.359 83.6185C481.483 92.6303 474.905 97.1572 468.625 97.199C465.108 97.199 462.538 96.121 460.916 93.9648C459.304 91.8087 458.498 88.9722 458.498 85.4554ZM483.21 64.3232C483.21 70.1532 484.654 74.7847 487.543 78.2177C492.525 70.8387 495.016 64.2395 495.016 58.42C495.016 53.5949 493.739 51.1823 491.185 51.1823C489.301 51.1823 487.501 52.4959 485.785 55.123C484.068 57.7397 483.21 60.8064 483.21 64.3232ZM506.713 83.9325C506.713 79.0341 508.126 72.9373 510.952 65.642C513.788 58.3572 516.148 54.7148 518.032 54.7148C519.665 54.7148 521.256 55.5731 522.805 57.2896C521.005 60.1366 519.121 64.1924 517.153 69.4571C515.186 74.7114 514.202 79.2644 514.202 83.1161C514.202 88.8623 515.751 91.7564 518.849 91.7982C519.979 91.7982 521.162 91.3691 522.397 90.5108C523.632 89.6526 524.888 88.3861 526.165 86.7114C527.452 85.0263 528.672 83.3464 529.823 81.6717C530.975 79.9971 532.199 77.9037 533.497 75.3917L536.825 69.1117L539.903 62.9416C541.033 60.4715 541.808 58.8806 542.226 58.1688C546.34 58.9224 548.417 60.0319 548.459 61.4972C548.459 61.7484 547.726 63.4859 546.261 66.7096C544.796 69.9438 543.346 73.6647 541.912 77.8723C540.489 82.0799 539.777 85.424 539.777 87.9046C539.777 91.3377 541.206 93.0542 544.063 93.0542C546.994 93.0542 550.552 91.1493 554.739 87.3394C558.936 83.5191 562.542 78.4689 565.556 72.1889L567.252 73.3821C564.489 80.2483 560.642 85.8846 555.712 90.291C550.793 94.687 546.005 96.885 541.347 96.885C535.36 96.885 532.367 93.7241 532.367 87.4022C532.367 85.6752 532.66 83.5139 533.246 80.9181C527.248 91.5627 521.633 96.885 516.4 96.885C513.553 96.885 511.224 95.629 509.413 93.117C507.613 90.605 506.713 87.5435 506.713 83.9325ZM562.605 86.209C562.605 78.83 565.096 68.4994 570.078 55.2172C568.027 54.8823 566.477 54.5474 565.431 54.2124V51.8731C568.529 52.2081 570.413 52.3755 571.083 52.3755C574.861 42.6206 578.917 34.1478 583.25 26.9572C587.583 19.7666 590.99 16.1713 593.471 16.1713C594.141 16.1713 594.758 16.433 595.324 16.9563C595.889 17.4797 596.171 18.16 596.171 18.9973C596.171 20.3057 595.334 22.5508 593.659 25.7326C591.974 28.9145 589.614 33.1692 586.579 38.4967C583.543 43.8138 581.042 48.5657 579.074 52.7523H583.847C590.975 52.7523 597.113 52.5011 602.263 51.9987V54.338C593.502 55.3428 586.359 55.8452 580.832 55.8452C580.623 55.8452 580.414 55.8452 580.204 55.8452C579.953 55.8452 579.744 55.8452 579.576 55.8452H577.63C572.93 66.4898 570.58 75.7476 570.58 83.6185C570.58 87.6063 571.135 90.3643 572.245 91.8924C573.354 93.4206 575.191 94.1846 577.755 94.1846C582.109 94.1846 586.443 92.2378 590.755 88.3442C595.078 84.4402 598.914 79.0551 602.263 72.1889L603.896 73.5077C600.714 80.96 596.417 87.0673 591.006 91.8296C585.605 96.5815 579.948 98.9574 574.034 98.9574C566.415 98.9574 562.605 94.708 562.605 86.209ZM600.505 84.5605C600.505 76.6896 602.912 66.0031 607.727 52.5011C612.552 39.0096 618.078 27.0776 624.306 16.7051C630.523 6.33265 635.432 1.14642 639.032 1.14642C640.424 1.14642 641.476 1.98375 642.188 3.65842C642.9 5.34355 643.256 7.21185 643.256 9.26332C643.256 13.2825 641.879 18.5525 639.127 25.0732C636.384 31.5835 632.658 38.0153 627.948 44.3685C623.228 50.7218 618.46 55.3638 613.645 58.2944C610.464 65.7572 608.873 74.1985 608.873 83.6185C608.873 85.0106 608.977 86.4812 609.187 88.0302C616.806 65.82 625.499 54.7148 635.264 54.7148C638.53 54.7148 640.984 55.8452 642.628 58.106C644.26 60.3668 645.077 63.0882 645.077 66.27C645.077 69.1274 644.156 72.953 642.314 77.7467C640.461 82.5405 639.535 85.9264 639.535 87.9046C639.535 91.1702 640.817 92.803 643.381 92.803C646.312 92.803 649.745 90.762 653.68 86.68C657.626 82.5876 660.897 77.7572 663.493 72.1889L665.126 73.7589C662.279 80.2901 658.652 85.6543 654.246 89.8514C649.85 94.0381 645.244 96.1314 640.43 96.1314C637.572 96.1314 635.38 95.3778 633.851 93.8706C632.323 92.3634 631.559 90.4166 631.559 88.0302C631.559 86.3137 632.219 83.1789 633.537 78.6259C634.856 74.0834 635.516 70.7393 635.516 68.5936C635.516 64.4907 633.904 62.4392 630.68 62.4392C627.833 62.4392 625.096 64.2814 622.469 67.9656C619.852 71.6604 617.748 75.7371 616.157 80.1959C614.567 84.6652 612.85 88.742 611.008 92.4262C609.166 96.1105 607.423 97.9526 605.78 97.9526C604.231 97.9526 602.964 96.6234 601.98 93.9648C600.997 91.3063 600.505 88.1715 600.505 84.5605ZM615.341 53.2704C620.826 48.9058 626.127 41.9769 631.245 32.4836C636.353 22.9904 638.907 16.3597 638.907 12.5917C638.907 11.9219 638.718 11.5869 638.342 11.5869C637.379 11.5869 635.516 13.5337 632.752 17.4273C629.989 21.3314 626.886 26.6642 623.442 33.4256C620.009 40.1976 617.309 46.8125 615.341 53.2704ZM659.16 83.8069C659.16 75.936 662.76 67.7877 669.961 59.362C677.173 50.9364 684.489 46.7235 691.91 46.7235C697.185 46.7235 699.823 49.3036 699.823 54.4636C699.823 60.8274 696.484 66.4113 689.806 71.2155C683.118 76.0093 675.833 78.7829 667.952 79.5365C667.617 81.0019 667.428 82.5509 667.387 84.1837C667.387 91.3953 670.783 95.001 677.576 95.001C682.809 95.001 688.09 92.8135 693.417 88.4384C698.734 84.0529 703.073 78.6364 706.432 72.1889L708.002 73.3821C704.559 81.0019 699.791 87.1301 693.7 91.7668C687.598 96.3931 681.323 98.7062 674.875 98.7062C669.799 98.7062 665.911 97.3142 663.21 94.53C660.51 91.7459 659.16 88.1715 659.16 83.8069ZM668.58 77.0873C674.577 74.9521 680.339 71.7336 685.865 67.4318C691.402 63.1405 694.171 58.5456 694.171 53.6472C694.171 51.669 693.271 50.6799 691.47 50.6799C687.441 50.6799 683.071 53.4902 678.361 59.1108C673.64 64.721 670.38 70.7131 668.58 77.0873ZM705.051 78.9085L703.905 76.7105C708.018 68.7454 711.498 60.5919 714.345 52.2499C713.508 51.4126 713.068 50.3869 713.026 49.1727C713.026 46.8701 713.696 44.8291 715.036 43.0497C716.376 41.2704 717.506 40.3807 718.427 40.3807C719.641 40.3807 720.248 41.4274 720.248 43.5207C720.248 43.8557 720.018 44.6825 719.558 46.0013C719.097 47.3201 718.867 48.0633 718.867 48.2307C718.867 49.2774 719.552 50.3764 720.924 51.5277C722.284 52.6895 723.781 53.7833 725.414 54.809C727.047 55.8348 728.554 57.3629 729.935 59.3934C731.317 61.424 732.008 63.6743 732.008 66.1444C732.008 69.0018 730.93 72.9321 728.774 77.9351C726.617 82.9487 725.539 86.2718 725.539 87.9046C725.539 90.4585 726.837 91.7564 729.433 91.7982C733.201 91.7982 737.341 89.6526 741.852 85.3612C746.352 81.0594 749.503 76.7943 751.303 72.5657L752.952 73.8845C750.304 79.7877 746.447 85.0158 741.381 89.5688C736.304 94.1114 731.191 96.3826 726.042 96.3826C723.111 96.3826 720.814 95.6186 719.149 94.0904C717.496 92.5623 716.669 90.5422 716.669 88.0302C716.669 85.4659 717.841 81.3682 720.186 75.7371C722.541 70.0956 723.718 66.1654 723.718 63.9464C723.718 63.1091 723.593 62.2822 723.341 61.4658C723.09 60.6494 722.86 60.0005 722.651 59.519C722.441 59.0376 722.002 58.5038 721.332 57.9176L719.872 56.5988C719.62 56.3476 719.045 55.929 718.145 55.3428C717.245 54.7567 716.711 54.3799 716.543 54.2124C712.524 64.5221 708.693 72.7541 705.051 78.9085ZM743.641 92.175C743.641 91.9238 744.395 89.9038 745.902 86.1148C747.409 82.3154 748.938 77.9142 750.487 72.9111C752.036 67.8976 752.81 63.758 752.81 60.4924C754.454 58.6922 756.427 57.792 758.729 57.792C761.032 57.792 762.183 58.9015 762.183 61.1204C762.183 64.0511 760.823 69.7083 758.101 78.0921C767.992 63.0097 776.915 55.4684 784.87 55.4684C787.978 55.4684 790.339 56.6093 791.95 58.891C793.562 61.1728 794.368 63.8836 794.368 67.0236C794.368 69.881 793.489 73.4973 791.731 77.8723C789.972 82.2474 789.093 85.424 789.093 87.4022C789.093 90.6678 790.391 92.3006 792.987 92.3006C798.304 92.3006 804.296 85.5967 810.963 72.1889L812.408 73.8845C806.253 88.3809 798.837 95.629 790.161 95.629C787.23 95.629 784.985 94.8754 783.425 93.3682C781.876 91.861 781.102 89.8724 781.102 87.4022C781.102 85.6752 781.73 82.7707 782.986 78.6887C784.242 74.6067 784.87 71.54 784.87 69.4885C784.87 65.2914 783.153 63.1928 779.72 63.1928C777.669 63.1928 775.46 64.0092 773.095 65.642C770.729 67.2748 768.641 69.0385 766.83 70.9329C765.03 72.8169 762.905 75.5592 760.456 79.1597C758.007 82.7603 756.259 85.424 755.212 87.151L750.487 95.001C747.305 95.001 745.023 94.059 743.641 92.175ZM807.76 81.2321C807.76 75.1615 809.425 70.7602 812.753 68.0284C816.092 65.3071 819.917 63.9464 824.23 63.9464C819.488 69.1065 817.118 74.8684 817.118 81.2321C817.118 86.3922 818.818 90.6783 822.22 94.0904C825.611 97.5026 830.483 99.2086 836.837 99.2086C843.18 99.2086 848.753 97.5444 853.557 94.216C858.351 90.8876 860.748 86.2875 860.748 80.4157C860.748 76.3965 859.398 72.7751 856.697 69.5513C853.997 66.3171 850.716 63.5487 846.853 61.246L835.424 54.4636C831.645 52.1505 828.406 49.3402 825.705 46.0327C823.005 42.7253 821.655 38.952 821.655 34.713C821.655 29.7309 823.11 24.6493 826.019 19.4683C828.929 14.2978 833.289 9.81805 839.098 6.02912C844.896 2.22972 851.317 0.330017 858.361 0.330017C867.373 0.330017 871.879 4.62659 871.879 13.2197C871.879 17.4901 870.843 22.2996 868.771 27.648C866.698 32.986 864.422 37.628 861.941 41.5739C859.094 40.9878 857.671 39.1404 857.671 36.0318C857.671 33.6454 858.937 29.1657 861.47 22.5926C864.003 16.0091 865.269 11.4823 865.269 9.01212C865.269 5.31739 862.862 3.47002 858.047 3.47002C850.501 3.47002 843.902 6.68852 838.25 13.1255C832.587 19.5625 829.756 25.7745 829.756 31.7614C829.756 35.2887 831.091 38.4444 833.76 41.2285C836.418 44.0127 839.631 46.4305 843.399 48.4819L854.593 55.0916C858.361 57.3106 861.575 60.2831 864.233 64.0092C866.902 67.7458 868.237 72.0215 868.237 76.8361C868.237 85.1781 864.809 91.8296 857.953 96.7908C851.098 101.762 843.337 104.248 834.67 104.248C827.124 104.248 820.749 102.254 815.548 98.2666C810.356 94.2893 807.76 88.6111 807.76 81.2321ZM876.84 83.8069C876.84 75.308 879.87 67.4737 885.931 60.304C891.98 53.1344 898.339 49.5495 905.006 49.5495C908.272 49.5495 910.616 50.4706 912.04 52.3127C913.474 54.1653 914.191 56.4104 914.191 59.048C914.191 61.6019 913.599 63.8104 912.417 65.6734C911.244 67.5365 909.674 68.468 907.707 68.468C906.241 68.468 905.006 67.8191 904.001 66.5212C905.299 65.9351 906.419 64.5849 907.361 62.4706C908.303 60.3564 908.774 58.3154 908.774 56.3476C908.774 54.2124 907.832 53.1448 905.948 53.1448C901.51 53.1448 896.879 56.7872 892.054 64.072C887.239 71.3673 884.832 78.2387 884.832 84.6861C884.832 91.8139 887.951 95.3778 894.189 95.3778C899.433 95.3778 904.608 93.2322 909.716 88.9408C914.834 84.639 918.754 79.0132 921.475 72.0633L923.171 73.3821C920.24 81.1798 915.755 87.6116 909.716 92.6774C903.687 97.7433 897.528 100.276 891.237 100.276C886.967 100.276 883.497 98.8632 880.828 96.0372C878.17 93.2112 876.84 89.1345 876.84 83.8069ZM915.698 88.407C915.698 83.3307 917.477 77.7153 921.036 71.5609C924.595 65.3961 929.205 60.0842 934.868 55.6254C940.52 51.1562 946.009 48.9215 951.337 48.9215C954.686 48.9215 957.47 49.8217 959.689 51.6219C961.919 53.4327 963.033 55.7406 963.033 58.5456C963.033 62.2299 960.935 64.072 956.738 64.072C957.156 62.523 957.366 61.0367 957.366 59.6132C957.366 54.7881 955.272 52.3755 951.086 52.3755C947.307 52.3755 943.293 54.5474 939.044 58.891C934.794 63.2242 931.314 68.243 928.603 73.9473C925.903 79.6412 924.553 84.5867 924.553 88.7838C924.553 92.1332 925.704 93.8078 928.007 93.8078C929.566 93.8078 931.382 93.0856 933.455 91.6412C935.527 90.1968 937.411 88.5745 939.107 86.7742C940.802 84.9635 942.833 82.53 945.198 79.4737C947.574 76.4175 949.327 74.0729 950.458 72.4401L955.042 65.7676C958.475 66.3538 960.192 67.4266 960.192 68.9861C960.192 69.656 958.957 72.2203 956.486 76.6791C954.016 81.1379 952.781 84.5448 952.781 86.8998C952.781 88.3652 953.137 89.6735 953.849 90.8248C954.561 91.9762 955.649 92.5518 957.114 92.5518C959.585 92.5518 962.719 90.7725 966.519 87.2138C970.308 83.6447 974.044 78.6364 977.729 72.1889L979 73.5077C976.352 80.3739 972.6 85.9892 967.743 90.3538C962.876 94.708 958.14 96.885 953.535 96.885C950.52 96.885 948.218 96.0058 946.627 94.2474C945.025 92.489 944.225 90.3748 944.225 87.9046C944.225 86.858 944.371 85.6177 944.664 84.1837C940.813 89.3438 937.359 93.117 934.302 95.5034C931.236 97.8898 928.195 99.083 925.181 99.083C922.334 99.083 920.041 98.162 918.304 96.3198C916.567 94.4777 915.698 91.8401 915.698 88.407ZM962.971 124.36C962.971 123.69 963.169 122.706 963.567 121.408C963.965 120.111 964.698 118.064 965.765 115.27C966.833 112.486 967.66 110.193 968.246 108.393C971.093 100.135 973.374 91.7825 975.091 83.3359C976.807 74.8998 978.613 62.8631 980.507 47.2259C980.591 46.3886 980.78 45.8129 981.073 45.4989C981.366 45.1849 981.994 45.0279 982.957 45.0279C985.008 45.0279 986.547 45.6036 987.572 46.7549C988.598 47.9063 989.111 49.2983 989.111 50.9311C989.111 53.328 988.127 59.1318 986.159 68.3424C988.797 63.1928 992.036 58.755 995.878 55.0288C999.709 51.2922 1003.88 49.4239 1008.41 49.4239C1012.18 49.4239 1015.3 50.7794 1017.75 53.4902C1020.2 56.1906 1021.42 59.7179 1021.42 64.072C1021.42 71.451 1018.45 78.6835 1012.5 85.7694C1006.55 92.8449 999.4 96.3826 991.058 96.3826C988.923 96.3826 987.143 96.1524 985.72 95.6918C984.296 95.2313 983.585 94.687 983.585 94.059C983.585 93.6404 984.652 93.431 986.787 93.431C993.497 93.431 999.552 90.4219 1004.95 84.4035C1010.36 78.3957 1013.07 72.0162 1013.07 65.2652C1013.07 62.3346 1012.45 59.9482 1011.22 58.106C1009.97 56.2639 1008.13 55.3428 1005.71 55.3428C1001.69 55.3428 997.641 57.6141 993.57 62.1566C989.509 66.7096 986.432 71.3516 984.338 76.0825C976.792 108.1 971.532 125.553 968.56 128.442C968.141 128.861 967.618 129.07 966.99 129.07C966.027 129.07 965.085 128.358 964.164 126.935C963.326 125.637 962.929 124.779 962.971 124.36ZM1023.56 83.8069C1023.56 75.936 1027.16 67.7877 1034.37 59.362C1041.59 50.9364 1048.9 46.7235 1056.31 46.7235C1061.59 46.7235 1064.24 49.3036 1064.24 54.4636C1064.24 60.8274 1060.89 66.4113 1054.2 71.2155C1047.53 76.0093 1040.25 78.7829 1032.36 79.5365C1032.03 81.0019 1031.84 82.5509 1031.8 84.1837C1031.8 91.3953 1035.19 95.001 1041.97 95.001C1047.22 95.001 1052.5 92.8135 1057.81 88.4384C1063.14 84.0529 1067.48 78.6364 1070.83 72.1889L1072.4 73.3821C1068.97 81.0019 1064.2 87.1301 1058.1 91.7668C1052.01 96.3931 1045.73 98.7062 1039.27 98.7062C1034.21 98.7062 1030.32 97.3142 1027.62 94.53C1024.91 91.7459 1023.56 88.1715 1023.56 83.8069ZM1032.99 77.0873C1038.98 74.9521 1044.74 71.7336 1050.28 67.4318C1055.8 63.1405 1058.57 58.5456 1058.57 53.6472C1058.57 51.669 1057.67 50.6799 1055.87 50.6799C1051.85 50.6799 1047.48 53.4902 1042.77 59.1108C1038.05 64.721 1034.79 70.7131 1032.99 77.0873ZM1065.62 82.7393C1065.62 80.4367 1065.98 78.4899 1066.72 76.8989C1067.45 75.308 1068.27 74.2299 1069.17 73.6647C1070.07 73.0995 1071.01 72.6076 1071.99 72.1889C1072.98 71.7703 1073.59 71.4353 1073.84 71.1841C1079.34 65.1867 1083.59 58.9591 1086.61 52.5011V50.9311C1086.61 48.0005 1087.1 45.8129 1088.08 44.3685C1089.07 42.9241 1090.26 42.2019 1091.65 42.2019C1093.03 42.2019 1093.72 42.7671 1093.72 43.8975C1093.72 44.065 1093.58 44.7453 1093.31 45.9385C1093.04 47.1317 1092.9 48.3354 1092.9 49.5495C1092.9 52.1139 1094.02 56.871 1096.26 63.8208C1098.5 70.7812 1099.62 76.3547 1099.62 80.5413C1099.62 82.844 1099.35 84.9635 1098.81 86.8998C1105.18 85.7694 1110.59 80.9077 1115.03 72.3145L1116.22 73.6333C1113.2 82.4777 1107.19 87.5697 1098.18 88.9094C1095.54 96.0268 1090.05 99.5854 1081.71 99.5854C1076.13 99.5854 1072.05 97.9212 1069.48 94.5928C1066.9 91.2644 1065.62 87.3133 1065.62 82.7393ZM1071.39 82.6137C1071.39 85.8898 1072.36 88.7943 1074.28 91.3272C1076.22 93.8602 1078.78 95.1266 1081.96 95.1266C1085.9 95.1266 1088.6 93.0124 1090.06 88.7838C1086.63 88.114 1083.5 86.769 1080.67 84.7489C1077.85 82.7393 1075.7 80.5204 1074.22 78.0921C1072.34 78.1759 1071.39 79.6831 1071.39 82.6137ZM1074.74 74.1357C1077.92 80.9181 1083.24 85.131 1090.69 86.7742C1091.04 84.5448 1091.23 82.5091 1091.27 80.6669C1091.27 78.2805 1091.05 75.7581 1090.6 73.0995C1090.16 70.441 1089.55 67.4946 1088.77 64.2604C1088 61.0367 1087.49 58.755 1087.24 57.4152C1082.84 64.6163 1078.67 70.1898 1074.74 74.1357Z" fill="#C91212"/>
<path d="M359.148 182.603C359.148 180.122 361.221 178.882 365.366 178.882C367.846 178.882 371.321 179.479 375.79 180.672C376.753 179.039 377.743 176.919 378.758 174.313C379.763 171.707 380.563 169.546 381.16 167.829C381.746 166.123 382.662 163.281 383.907 159.304L386.388 151.611C383.792 150.753 381.746 149.502 380.249 147.859C378.742 146.215 377.988 144.441 377.988 142.536C377.988 140.914 378.486 139.391 379.48 137.968C380.474 136.544 381.73 135.833 383.248 135.833C382.505 136.848 382.133 138.601 382.133 141.092C382.133 145.143 383.745 148.052 386.969 149.821C388.214 146.043 389.402 142.793 390.533 140.072C391.663 137.35 392.982 134.723 394.489 132.19C395.986 129.647 397.64 127.721 399.45 126.413C401.261 125.104 403.187 124.45 405.228 124.45C407.321 124.45 409.211 125.13 410.896 126.491C412.581 127.862 413.423 130.065 413.423 133.101C413.423 135.142 413.005 137.266 412.167 139.475C411.32 141.683 410.105 143.787 408.525 145.786C406.934 147.785 404.794 149.423 402.104 150.7C399.414 151.967 396.41 152.6 393.092 152.6H391.726C386.932 167.055 382.861 176.783 379.511 181.786C380.014 181.954 381.286 182.352 383.327 182.98L387.471 184.22C388.162 184.44 389.381 184.78 391.129 185.24C392.888 185.69 394.248 186.02 395.211 186.23C396.174 186.439 397.289 186.627 398.556 186.795C399.832 186.962 400.979 187.046 401.994 187.046C404.255 187.046 406.259 186.591 408.007 185.68C406.322 190.474 403.354 192.871 399.105 192.871C397.64 192.871 395.871 192.578 393.798 191.991C391.726 191.395 390.083 190.84 388.869 190.327C387.654 189.814 385.551 188.872 382.557 187.501C379.564 186.12 377.737 185.288 377.078 185.005C374.074 188.344 370.929 190.013 367.642 190.013C365.099 190.013 363.047 189.186 361.488 187.533C359.928 185.879 359.148 184.236 359.148 182.603ZM363.168 185.916C364.35 186.994 365.732 187.533 367.312 187.533C369.678 187.533 371.855 186.235 373.844 183.639C369.647 181.964 366.418 181.127 364.157 181.127C362.283 181.127 361.346 181.65 361.346 182.697C361.346 183.775 361.954 184.848 363.168 185.916ZM392.228 150.983C396.865 150.931 400.795 148.555 404.019 143.855C407.253 139.166 408.87 134.822 408.87 130.824C408.87 128.009 407.85 126.601 405.809 126.601C404.563 126.601 403.349 127.192 402.166 128.375C400.973 129.568 399.785 131.473 398.603 134.09C397.42 136.717 396.399 139.187 395.541 141.5C394.683 143.824 393.579 146.985 392.228 150.983ZM411.555 182.446C411.555 179.107 412.727 175.407 415.072 171.346C417.427 167.295 420.467 163.799 424.194 160.858C427.909 157.917 431.52 156.447 435.027 156.447C437.235 156.447 439.072 157.038 440.537 158.221C442.003 159.414 442.735 160.932 442.735 162.774C442.735 165.202 441.354 166.416 438.59 166.416C438.863 165.401 438.999 164.422 438.999 163.48C438.999 160.309 437.622 158.723 434.87 158.723C432.379 158.723 429.736 160.152 426.941 163.009C424.136 165.867 421.844 169.169 420.065 172.916C418.285 176.673 417.395 179.934 417.395 182.697C417.395 184.905 418.154 186.01 419.672 186.01C420.698 186.01 421.891 185.533 423.252 184.581C424.623 183.629 425.863 182.556 426.972 181.363C428.092 180.18 429.432 178.578 430.992 176.558C432.551 174.549 433.703 173.005 434.446 171.927L437.476 167.547C439.737 167.934 440.867 168.635 440.867 169.65C440.867 170.09 440.056 171.78 438.434 174.721C436.801 177.663 435.984 179.908 435.984 181.457C435.984 182.42 436.22 183.278 436.691 184.032C437.162 184.796 437.879 185.178 438.842 185.178C440.464 185.178 442.526 184.005 445.027 181.661C447.529 179.316 449.994 176.019 452.422 171.77L453.239 172.633C451.501 177.155 449.036 180.855 445.844 183.733C442.641 186.601 439.522 188.035 436.487 188.035C434.498 188.035 432.98 187.454 431.934 186.292C430.877 185.131 430.348 183.738 430.348 182.116C430.348 181.425 430.447 180.609 430.646 179.667C428.103 183.069 425.826 185.554 423.817 187.124C421.797 188.694 419.792 189.479 417.804 189.479C415.93 189.479 414.423 188.872 413.282 187.658C412.131 186.444 411.555 184.707 411.555 182.446ZM447.445 184.926C447.445 184.759 447.942 183.43 448.937 180.939C449.931 178.437 450.941 175.538 451.967 172.241C452.982 168.944 453.49 166.217 453.49 164.061C454.568 162.878 455.866 162.287 457.383 162.287C458.901 162.287 459.66 163.02 459.66 164.485C459.66 166.411 458.765 170.132 456.975 175.648C463.485 165.715 469.363 160.748 474.606 160.748C476.647 160.748 478.202 161.502 479.269 163.009C480.326 164.516 480.855 166.301 480.855 168.363C480.855 170.247 480.274 172.628 479.112 175.506C477.961 178.395 477.385 180.489 477.385 181.786C477.385 183.932 478.238 185.005 479.944 185.005C483.451 185.005 487.397 180.593 491.782 171.77L492.74 172.885C488.679 182.43 483.796 187.203 478.092 187.203C476.155 187.203 474.674 186.706 473.649 185.711C472.633 184.717 472.126 183.409 472.126 181.786C472.126 180.656 472.539 178.746 473.366 176.056C474.193 173.356 474.606 171.33 474.606 169.98C474.606 167.227 473.476 165.851 471.215 165.851C469.865 165.851 468.41 166.385 466.85 167.452C465.291 168.53 463.915 169.692 462.721 170.938C461.539 172.183 460.141 173.989 458.53 176.354C456.907 178.73 455.751 180.483 455.06 181.614L451.967 186.795C449.863 186.795 448.356 186.172 447.445 184.926ZM488.799 180.907C488.799 177.788 489.945 174.203 492.237 170.153C494.53 166.092 497.497 162.549 501.139 159.524C504.782 156.509 508.272 155.002 511.611 155.002C514.102 155.002 515.348 155.871 515.348 157.608C515.348 157.828 515.29 158.226 515.175 158.802C514.537 157.954 513.459 157.53 511.941 157.53C509.125 157.53 506.331 158.953 503.557 161.8C500.783 164.658 498.627 167.813 497.089 171.267C495.54 174.721 494.765 177.605 494.765 179.918C494.765 181.164 495.037 182.153 495.582 182.885C496.115 183.608 496.853 183.969 497.795 183.969C500.223 183.969 503.227 181.786 506.807 177.422C510.397 173.047 513.506 167.463 516.133 160.67L519.446 152.098L522.633 144.154C523.983 140.815 525.139 138.208 526.102 136.335L529.085 130.416C530.216 128.312 531.252 126.789 532.194 125.847C533.125 124.916 533.952 124.45 534.675 124.45C535.114 124.45 535.507 124.633 535.852 125C536.197 125.376 536.37 125.853 536.37 126.428C536.37 127.569 535.35 130.332 533.309 134.718L526.636 148.628C524.208 153.537 521.973 158.974 519.932 164.94C517.891 170.896 516.871 175.779 516.871 179.588C516.871 180.886 516.897 181.802 516.949 182.336C517.012 182.88 517.185 183.346 517.467 183.733C517.76 184.12 518.21 184.314 518.818 184.314C520.691 184.314 522.915 183.137 525.49 180.782C528.054 178.437 530.19 175.433 531.896 171.77L532.9 172.555C531.268 176.857 528.85 180.457 525.647 183.356C522.444 186.256 519.383 187.705 516.463 187.705C514.526 187.705 513.108 187.083 512.208 185.837C511.318 184.591 510.873 183.1 510.873 181.363C510.873 179.437 511.412 176.417 512.49 172.304C509.612 177.045 506.629 180.855 503.541 183.733C500.454 186.601 497.664 188.035 495.173 188.035C493.551 188.035 492.086 187.428 490.777 186.214C489.459 185 488.799 183.231 488.799 180.907ZM528.552 178.725C528.552 177.207 528.792 175.92 529.274 174.863C529.755 173.816 530.294 173.11 530.891 172.743C531.477 172.366 532.094 172.042 532.743 171.77C533.392 171.487 533.801 171.262 533.968 171.095C537.579 167.149 540.379 163.051 542.368 158.802V157.765C542.368 155.84 542.692 154.4 543.341 153.448C543.99 152.495 544.77 152.019 545.68 152.019C546.591 152.019 547.046 152.391 547.046 153.134C547.046 153.249 546.957 153.699 546.779 154.484C546.601 155.269 546.512 156.059 546.512 156.855C546.512 158.54 547.25 161.675 548.726 166.259C550.202 170.844 550.94 174.512 550.94 177.265C550.94 178.782 550.762 180.18 550.406 181.457C554.603 180.703 558.162 177.5 561.082 171.848L561.867 172.712C559.878 178.542 555.917 181.896 549.982 182.776C548.245 187.465 544.634 189.809 539.149 189.809C535.475 189.809 532.791 188.715 531.095 186.528C529.399 184.33 528.552 181.729 528.552 178.725ZM532.351 178.631C532.351 180.787 532.989 182.697 534.266 184.361C535.533 186.036 537.213 186.873 539.306 186.873C541.902 186.873 543.681 185.481 544.644 182.697C542.383 182.257 540.321 181.373 538.458 180.044C536.595 178.714 535.182 177.249 534.219 175.648C532.974 175.711 532.351 176.705 532.351 178.631ZM534.549 173.042C536.642 177.511 540.149 180.284 545.068 181.363C545.288 179.908 545.408 178.573 545.429 177.359C545.429 175.779 545.288 174.114 545.005 172.366C544.712 170.608 544.309 168.666 543.796 166.542C543.294 164.417 542.959 162.915 542.791 162.036C539.892 166.777 537.145 170.446 534.549 173.042ZM559.057 179.416C559.057 173.816 561.051 168.656 565.038 163.936C569.026 159.215 573.213 156.855 577.598 156.855C579.754 156.855 581.298 157.462 582.23 158.676C583.172 159.89 583.643 161.371 583.643 163.119C583.643 164.794 583.256 166.249 582.481 167.484C581.706 168.708 580.676 169.321 579.388 169.321C578.415 169.321 577.598 168.891 576.939 168.033C577.797 167.646 578.535 166.756 579.153 165.364C579.77 163.972 580.079 162.627 580.079 161.329C580.079 159.927 579.461 159.226 578.226 159.226C575.296 159.226 572.245 161.622 569.073 166.416C565.902 171.22 564.316 175.747 564.316 179.997C564.316 184.696 566.373 187.046 570.486 187.046C573.93 187.046 577.337 185.628 580.707 182.791C584.077 179.965 586.657 176.26 588.447 171.676L589.562 172.555C587.636 177.683 584.684 181.917 580.707 185.256C576.73 188.595 572.674 190.264 568.539 190.264C565.724 190.264 563.437 189.333 561.679 187.47C559.931 185.607 559.057 182.922 559.057 179.416ZM584.632 182.446C584.632 179.107 585.809 175.407 588.164 171.346C590.509 167.295 593.544 163.799 597.27 160.858C600.997 157.917 604.608 156.447 608.103 156.447C610.312 156.447 612.149 157.038 613.614 158.221C615.079 159.414 615.812 160.932 615.812 162.774C615.812 165.202 614.431 166.416 611.667 166.416C611.95 165.401 612.091 164.422 612.091 163.48C612.091 160.309 610.71 158.723 607.946 158.723C605.466 158.723 602.823 160.152 600.018 163.009C597.213 165.867 594.921 169.169 593.141 172.916C591.362 176.673 590.472 179.934 590.472 182.697C590.472 184.905 591.231 186.01 592.749 186.01C593.775 186.01 594.968 185.533 596.328 184.581C597.7 183.629 598.945 182.556 600.065 181.363C601.174 180.18 602.509 178.578 604.069 176.558C605.628 174.549 606.785 173.005 607.538 171.927L610.553 167.547C612.813 167.934 613.944 168.635 613.944 169.65C613.944 170.09 613.133 171.78 611.51 174.721C609.877 177.663 609.061 179.908 609.061 181.457C609.061 182.42 609.297 183.278 609.768 184.032C610.239 184.796 610.956 185.178 611.919 185.178C613.551 185.178 615.613 184.005 618.104 181.661C620.606 179.316 623.071 176.019 625.499 171.77L626.331 172.633C624.583 177.155 622.113 180.855 618.921 183.733C615.718 186.601 612.599 188.035 609.564 188.035C607.575 188.035 606.057 187.454 605.01 186.292C603.953 185.131 603.425 183.738 603.425 182.116C603.425 181.425 603.524 180.609 603.723 179.667C601.18 183.069 598.903 185.554 596.894 187.124C594.874 188.694 592.874 189.479 590.896 189.479C589.012 189.479 587.5 188.872 586.359 187.658C585.208 186.444 584.632 184.707 584.632 182.446ZM615.765 206.121C615.765 205.682 615.896 205.033 616.158 204.175C616.419 203.316 616.906 201.971 617.618 200.14C618.319 198.308 618.863 196.796 619.25 195.602C621.124 190.17 622.626 184.675 623.756 179.117C624.887 173.549 626.075 165.621 627.32 155.332C627.373 154.777 627.498 154.395 627.697 154.186C627.885 153.987 628.299 153.888 628.937 153.888C630.288 153.888 631.303 154.264 631.983 155.018C632.653 155.782 632.988 156.698 632.988 157.765C632.988 159.346 632.339 163.171 631.041 169.242C632.779 165.84 634.914 162.915 637.447 160.466C639.969 158.006 642.722 156.776 645.705 156.776C648.185 156.776 650.232 157.666 651.844 159.445C653.455 161.225 654.261 163.548 654.261 166.416C654.261 171.283 652.304 176.045 648.39 180.703C644.475 185.371 639.77 187.705 634.275 187.705C632.862 187.705 631.69 187.554 630.759 187.25C629.817 186.946 629.345 186.585 629.345 186.167C629.345 185.895 630.052 185.759 631.465 185.759C635.871 185.759 639.859 183.775 643.428 179.808C646.987 175.852 648.766 171.655 648.766 167.217C648.766 165.28 648.358 163.705 647.542 162.491C646.725 161.277 645.516 160.67 643.915 160.67C641.267 160.67 638.603 162.167 635.924 165.16C633.255 168.154 631.23 171.21 629.848 174.329C624.876 195.419 621.412 206.912 619.454 208.806C619.182 209.089 618.837 209.23 618.418 209.23C617.78 209.23 617.157 208.759 616.55 207.817C616.006 206.959 615.744 206.394 615.765 206.121ZM655.674 179.416C655.674 174.235 658.05 168.871 662.802 163.323C667.544 157.776 672.358 155.002 677.246 155.002C680.721 155.002 682.459 156.698 682.459 160.089C682.459 164.286 680.255 167.965 675.849 171.126C671.453 174.287 666.659 176.113 661.468 176.605C661.248 177.568 661.122 178.589 661.091 179.667C661.091 184.419 663.331 186.795 667.81 186.795C671.254 186.795 674.729 185.35 678.235 182.462C681.742 179.583 684.599 176.019 686.808 171.77L687.844 172.555C685.583 177.579 682.443 181.614 678.424 184.66C674.405 187.705 670.27 189.228 666.021 189.228C662.682 189.228 660.123 188.312 658.343 186.481C656.564 184.649 655.674 182.294 655.674 179.416ZM661.892 174.988C665.838 173.586 669.632 171.472 673.274 168.646C676.917 165.809 678.738 162.779 678.738 159.555C678.738 158.257 678.141 157.608 676.948 157.608C674.3 157.608 671.427 159.456 668.329 163.151C665.22 166.845 663.074 170.791 661.892 174.988ZM704.815 182.446C704.815 179.107 705.988 175.407 708.332 171.346C710.677 167.295 713.712 163.799 717.438 160.858C721.164 157.917 724.781 156.447 728.287 156.447C730.495 156.447 732.332 157.038 733.798 158.221C735.252 159.414 735.98 160.932 735.98 162.774C735.98 165.202 734.604 166.416 731.851 166.416C732.123 165.401 732.259 164.422 732.259 163.48C732.259 160.309 730.877 158.723 728.114 158.723C725.634 158.723 722.991 160.152 720.186 163.009C717.391 165.867 715.104 169.169 713.325 172.916C711.545 176.673 710.656 179.934 710.656 182.697C710.656 184.905 711.415 186.01 712.932 186.01C713.948 186.01 715.141 185.533 716.512 184.581C717.873 183.629 719.113 182.556 720.233 181.363C721.353 180.18 722.692 178.578 724.252 176.558C725.812 174.549 726.963 173.005 727.706 171.927L730.72 167.547C732.992 167.934 734.127 168.635 734.127 169.65C734.127 170.09 733.311 171.78 731.678 174.721C730.045 177.663 729.229 179.908 729.229 181.457C729.229 182.42 729.464 183.278 729.935 184.032C730.406 184.796 731.123 185.178 732.086 185.178C733.719 185.178 735.786 184.005 738.288 181.661C740.779 179.316 743.239 176.019 745.667 171.77L746.499 172.633C744.761 177.155 742.291 180.855 739.089 183.733C735.886 186.601 732.767 188.035 729.731 188.035C727.743 188.035 726.225 187.454 725.178 186.292C724.132 185.131 723.608 183.738 723.608 182.116C723.608 181.425 723.702 180.609 723.891 179.667C721.358 183.069 719.081 185.554 717.061 187.124C715.052 188.694 713.053 189.479 711.064 189.479C709.19 189.479 707.678 188.872 706.527 187.658C705.386 186.444 704.815 184.707 704.815 182.446ZM740.706 184.926C740.706 184.759 741.203 183.43 742.197 180.939C743.191 178.437 744.196 175.538 745.212 172.241C746.237 168.944 746.75 166.217 746.75 164.061C747.828 162.878 749.126 162.287 750.644 162.287C752.161 162.287 752.92 163.02 752.92 164.485C752.92 166.411 752.02 170.132 750.22 175.648C756.741 165.715 762.623 160.748 767.867 160.748C769.908 160.748 771.457 161.502 772.514 163.009C773.581 164.516 774.115 166.301 774.115 168.363C774.115 170.247 773.534 172.628 772.373 175.506C771.211 178.395 770.63 180.489 770.63 181.786C770.63 183.932 771.488 185.005 773.205 185.005C776.711 185.005 780.657 180.593 785.042 171.77L785.984 172.885C781.934 182.43 777.051 187.203 771.336 187.203C769.4 187.203 767.924 186.706 766.909 185.711C765.883 184.717 765.37 183.409 765.37 181.786C765.37 180.656 765.784 178.746 766.611 176.056C767.448 173.356 767.867 171.33 767.867 169.98C767.867 167.227 766.731 165.851 764.46 165.851C763.11 165.851 761.655 166.385 760.095 167.452C758.536 168.53 757.164 169.692 755.982 170.938C754.789 172.183 753.386 173.989 751.774 176.354C750.162 178.73 749.011 180.483 748.32 181.614L745.212 186.795C743.118 186.795 741.616 186.172 740.706 184.926ZM782.059 180.907C782.059 177.788 783.206 174.203 785.498 170.153C787.79 166.092 790.757 162.549 794.4 159.524C798.042 156.509 801.533 155.002 804.872 155.002C807.352 155.002 808.592 155.871 808.592 157.608C808.592 157.828 808.54 158.226 808.435 158.802C807.797 157.954 806.719 157.53 805.201 157.53C802.386 157.53 799.591 158.953 796.817 161.8C794.044 164.658 791.882 167.813 790.333 171.267C788.795 174.721 788.025 177.605 788.025 179.918C788.025 181.164 788.292 182.153 788.826 182.885C789.36 183.608 790.098 183.969 791.04 183.969C793.468 183.969 796.477 181.786 800.067 177.422C803.657 173.047 806.761 167.463 809.377 160.67L812.69 152.098L815.877 144.154C817.227 140.815 818.389 138.208 819.363 136.335L822.33 130.416C823.471 128.312 824.507 126.789 825.439 125.847C826.381 124.916 827.207 124.45 827.919 124.45C828.369 124.45 828.767 124.633 829.112 125C829.458 125.376 829.63 125.853 829.63 126.428C829.63 127.569 828.605 130.332 826.553 134.718L819.896 148.628C817.468 153.537 815.234 158.974 813.193 164.94C811.152 170.896 810.131 175.779 810.131 179.588C810.131 180.886 810.157 181.802 810.21 182.336C810.262 182.88 810.435 183.346 810.728 183.733C811.021 184.12 811.471 184.314 812.078 184.314C813.951 184.314 816.17 183.137 818.735 180.782C821.299 178.437 823.439 175.433 825.156 171.77L826.145 172.555C824.512 176.857 822.1 180.457 818.907 183.356C815.705 186.256 812.638 187.705 809.707 187.705C807.781 187.705 806.368 187.083 805.468 185.837C804.568 184.591 804.118 183.1 804.118 181.363C804.118 179.437 804.657 176.417 805.735 172.304C802.867 177.045 799.889 180.855 796.802 183.733C793.704 186.601 790.914 188.035 788.434 188.035C786.801 188.035 785.33 187.428 784.022 186.214C782.714 185 782.059 183.231 782.059 180.907ZM842.206 192.965C842.374 191.499 842.829 190.285 843.572 189.322C844.315 188.349 845.378 187.658 846.759 187.25C848.141 186.831 849.507 186.549 850.857 186.402C852.207 186.245 853.934 186.167 856.038 186.167C858.414 181.038 861.407 170.786 865.018 155.41C868.629 140.035 870.78 131.384 871.471 129.458C863.966 129.626 857.608 130.191 852.395 131.154C853.191 126.821 858.832 124.654 869.32 124.654C869.372 124.654 869.44 124.654 869.524 124.654C869.587 124.654 869.644 124.654 869.697 124.654C876.542 124.654 883.937 125.245 891.881 126.428C889.924 128.396 887.291 129.38 883.984 129.38C883.921 129.38 883.879 129.38 883.858 129.38C883.795 129.38 883.738 129.38 883.686 129.38C879.269 129.38 876.176 129.406 874.407 129.458C870.22 151.951 867.436 166.055 866.054 171.77C864.066 179.578 861.69 184.403 858.927 186.245C860.559 186.36 863.537 186.648 867.86 187.109C872.172 187.559 875.323 187.81 877.311 187.862C874.883 190.291 871.696 191.505 867.75 191.505H862.569C859.816 191.505 857.943 191.541 856.948 191.615C855.954 191.688 854.421 191.761 852.348 191.834C850.276 191.918 848.46 192.059 846.9 192.258C845.341 192.447 843.776 192.682 842.206 192.965ZM881.205 176.197L880.451 174.737C883.162 169.493 885.454 164.129 887.328 158.645C886.773 158.09 886.485 157.415 886.464 156.619C886.464 155.102 886.904 153.751 887.783 152.569C888.662 151.396 889.411 150.81 890.028 150.81C890.824 150.81 891.222 151.501 891.222 152.883C891.222 153.103 891.07 153.647 890.766 154.516C890.463 155.384 890.311 155.876 890.311 155.991C890.311 156.682 890.761 157.404 891.661 158.158C892.551 158.922 893.535 159.644 894.613 160.325C895.691 160.994 896.685 161.999 897.596 163.339C898.506 164.679 898.962 166.16 898.962 167.782C898.962 169.666 898.25 172.257 896.826 175.554C895.403 178.851 894.691 181.038 894.691 182.116C894.691 183.801 895.549 184.654 897.266 184.675C899.747 184.675 902.473 183.262 905.446 180.436C908.408 177.61 910.485 174.8 911.679 172.005L912.746 172.885C911.009 176.778 908.471 180.222 905.132 183.215C901.793 186.209 898.428 187.705 895.037 187.705C893.1 187.705 891.588 187.203 890.499 186.198C889.411 185.183 888.867 183.848 888.867 182.195C888.867 180.509 889.636 177.814 891.174 174.109C892.723 170.393 893.498 167.803 893.498 166.338C893.498 165.783 893.414 165.239 893.247 164.705C893.079 164.171 892.928 163.742 892.792 163.417C892.655 163.103 892.368 162.753 891.928 162.366L890.97 161.502C890.803 161.335 890.426 161.057 889.84 160.67C889.243 160.283 888.887 160.037 888.772 159.932C886.124 166.714 883.602 172.136 881.205 176.197ZM910.674 176.197L909.936 174.737C912.636 169.493 914.923 164.129 916.797 158.645C916.253 158.09 915.965 157.415 915.933 156.619C915.933 155.102 916.373 153.751 917.252 152.569C918.142 151.396 918.89 150.81 919.497 150.81C920.293 150.81 920.69 151.501 920.69 152.883C920.69 153.103 920.539 153.647 920.235 154.516C919.932 155.384 919.78 155.876 919.78 155.991C919.78 156.682 920.23 157.404 921.13 158.158C922.03 158.922 923.019 159.644 924.097 160.325C925.165 160.994 926.154 161.999 927.065 163.339C927.975 164.679 928.431 166.16 928.431 167.782C928.431 169.666 927.724 172.257 926.311 175.554C924.888 178.851 924.176 181.038 924.176 182.116C924.176 183.801 925.029 184.654 926.735 184.675C929.226 184.675 931.953 183.262 934.915 180.436C937.877 177.61 939.954 174.8 941.148 172.005L942.215 172.885C940.478 176.778 937.939 180.222 934.601 183.215C931.262 186.209 927.897 187.705 924.506 187.705C922.569 187.705 921.057 187.203 919.968 186.198C918.88 185.183 918.335 183.848 918.335 182.195C918.335 180.509 919.11 177.814 920.659 174.109C922.198 170.393 922.967 167.803 922.967 166.338C922.967 165.783 922.888 165.239 922.731 164.705C922.564 164.171 922.412 163.742 922.276 163.417C922.13 163.103 921.837 162.753 921.397 162.366L920.439 161.502C920.282 161.335 919.905 161.057 919.309 160.67C918.712 160.283 918.362 160.037 918.257 159.932C915.609 166.714 913.081 172.136 910.674 176.197ZM938.902 180.578C938.902 178.369 939.499 175.402 940.692 171.676C941.875 167.949 943.455 164.537 945.434 161.439C947.401 158.331 949.296 156.776 951.117 156.776C952.363 156.776 952.985 157.399 952.985 158.645C952.985 159.335 952.247 160.884 950.772 163.292C949.296 165.71 947.825 168.462 946.36 171.55C944.895 174.648 944.162 177.354 944.162 179.667C944.162 181.656 944.486 183.001 945.135 183.702C945.784 184.414 946.841 184.769 948.307 184.769C952.724 184.769 957.073 180.436 961.353 171.77L962.138 172.633C960.558 177.375 958.224 181.075 955.136 183.733C952.049 186.381 948.804 187.705 945.402 187.705C943.309 187.705 941.702 187.041 940.582 185.711C939.462 184.393 938.902 182.681 938.902 180.578ZM952.122 146.1C952.122 144.97 952.802 143.949 954.163 143.039C955.534 142.128 956.921 141.673 958.323 141.673C960.176 141.673 961.102 142.5 961.102 144.154C961.102 145.336 960.521 146.42 959.36 147.403C958.198 148.387 956.942 148.879 955.592 148.879C955.56 148.879 955.534 148.879 955.513 148.879C953.252 148.879 952.122 147.953 952.122 146.1ZM958.041 204.347C958.041 203.217 958.25 202.139 958.669 201.113C959.098 200.087 959.82 199.093 960.835 198.13C961.84 197.167 962.73 196.346 963.504 195.665C964.279 194.995 965.503 194.205 967.178 193.295L970.742 191.348C971.433 190.96 972.705 190.312 974.557 189.401C976.127 185.34 977.577 180.677 978.906 175.412C973.882 182.634 969.271 186.245 965.074 186.245C963.086 186.245 961.526 185.502 960.396 184.016C959.265 182.53 958.7 180.541 958.7 178.05C958.7 174.324 959.946 170.723 962.437 167.248C964.938 163.773 967.916 161.041 971.37 159.053C974.814 157.064 978.084 156.07 981.183 156.07C984.239 156.07 985.767 156.98 985.767 158.802C985.767 159.712 985.422 160.277 984.731 160.497C984.103 159.649 982.972 159.226 981.34 159.226C977.142 159.226 973.259 161.46 969.69 165.929C966.111 170.399 964.321 174.58 964.321 178.474C964.321 181.226 965.305 182.603 967.272 182.603C968.79 182.603 970.69 181.561 972.971 179.479C975.264 177.396 977.545 174.716 979.817 171.44L980.837 166.919C981.476 164.051 982.915 162.617 985.155 162.617C985.647 162.617 986.238 162.7 986.929 162.868C986.929 164.386 986.306 167.447 985.06 172.052C983.825 176.658 982.282 181.336 980.429 186.088C983.36 184.675 986.081 182.713 988.593 180.201C991.094 177.699 992.984 174.889 994.261 171.77L995.328 172.633C994.146 176.087 992.016 179.222 988.938 182.038C985.861 184.843 982.705 187.02 979.471 188.569C973.767 202.343 968.277 209.23 963.002 209.23C962.971 209.23 962.955 209.23 962.955 209.23C961.605 209.23 960.448 208.822 959.485 208.005C958.522 207.189 958.041 205.97 958.041 204.347ZM960.678 203.562C960.678 204.473 960.862 205.195 961.228 205.729C961.584 206.263 962.081 206.53 962.719 206.53C964.017 206.53 965.634 205.305 967.571 202.856C969.517 200.396 971.543 196.686 973.647 191.725C969.502 193.818 966.304 195.759 964.054 197.549C961.803 199.349 960.678 201.354 960.678 203.562ZM990.493 182.446C990.493 179.107 991.665 175.407 994.009 171.346C996.354 167.295 999.389 163.799 1003.12 160.858C1006.84 157.917 1010.46 156.447 1013.96 156.447C1016.17 156.447 1018.01 157.038 1019.47 158.221C1020.93 159.414 1021.66 160.932 1021.66 162.774C1021.66 165.202 1020.28 166.416 1017.53 166.416C1017.8 165.401 1017.94 164.422 1017.94 163.48C1017.94 160.309 1016.55 158.723 1013.79 158.723C1011.31 158.723 1008.67 160.152 1005.86 163.009C1003.07 165.867 1000.78 169.169 999.002 172.916C997.223 176.673 996.333 179.934 996.333 182.697C996.333 184.905 997.092 186.01 998.61 186.01C999.625 186.01 1000.82 185.533 1002.19 184.581C1003.55 183.629 1004.79 182.556 1005.91 181.363C1007.03 180.18 1008.37 178.578 1009.93 176.558C1011.49 174.549 1012.64 173.005 1013.38 171.927L1016.4 167.547C1018.67 167.934 1019.8 168.635 1019.8 169.65C1019.8 170.09 1018.99 171.78 1017.36 174.721C1015.72 177.663 1014.91 179.908 1014.91 181.457C1014.91 182.42 1015.14 183.278 1015.61 184.032C1016.08 184.796 1016.8 185.178 1017.76 185.178C1019.4 185.178 1021.46 184.005 1023.97 181.661C1026.46 179.316 1028.92 176.019 1031.34 171.77L1032.18 172.633C1030.44 177.155 1027.97 180.855 1024.77 183.733C1021.56 186.601 1018.44 188.035 1015.41 188.035C1013.42 188.035 1011.9 187.454 1010.86 186.292C1009.81 185.131 1009.29 183.738 1009.29 182.116C1009.29 181.425 1009.38 180.609 1009.57 179.667C1007.04 183.069 1004.76 185.554 1002.74 187.124C1000.73 188.694 998.73 189.479 996.741 189.479C994.868 189.479 993.355 188.872 992.204 187.658C991.063 186.444 990.493 184.707 990.493 182.446ZM1029.27 181.001C1029.27 176.145 1030.91 169.342 1034.2 160.591C1032.85 160.372 1031.83 160.152 1031.14 159.932V158.393C1033.18 158.613 1034.42 158.723 1034.86 158.723C1037.35 152.297 1040.03 146.713 1042.88 141.971C1045.73 137.24 1047.97 134.875 1049.6 134.875C1050.04 134.875 1050.45 135.048 1050.83 135.393C1051.19 135.738 1051.38 136.188 1051.38 136.743C1051.38 137.601 1050.83 139.077 1049.73 141.171C1048.62 143.264 1047.06 146.064 1045.07 149.57C1043.07 153.076 1041.42 156.211 1040.12 158.974H1043.28C1047.97 158.974 1052.01 158.807 1055.4 158.472V160.011C1049.63 160.67 1044.92 161 1041.28 161C1041.15 161 1041.01 161 1040.87 161C1040.71 161 1040.57 161 1040.45 161H1039.18C1036.08 168.012 1034.53 174.109 1034.53 179.29C1034.53 181.917 1034.9 183.733 1035.63 184.738C1036.36 185.743 1037.57 186.245 1039.26 186.245C1042.12 186.245 1044.98 184.963 1047.83 182.399C1050.67 179.834 1053.19 176.291 1055.4 171.77L1056.48 172.633C1054.38 177.542 1051.54 181.567 1047.99 184.707C1044.43 187.836 1040.7 189.401 1036.81 189.401C1031.78 189.401 1029.27 186.601 1029.27 181.001ZM1053.32 180.578C1053.32 178.369 1053.92 175.402 1055.11 171.676C1056.3 167.949 1057.88 164.537 1059.86 161.439C1061.82 158.331 1063.72 156.776 1065.54 156.776C1066.78 156.776 1067.41 157.399 1067.41 158.645C1067.41 159.335 1066.67 160.884 1065.19 163.292C1063.72 165.71 1062.25 168.462 1060.78 171.55C1059.32 174.648 1058.58 177.354 1058.58 179.667C1058.58 181.656 1058.91 183.001 1059.56 183.702C1060.21 184.414 1061.26 184.769 1062.73 184.769C1067.15 184.769 1071.49 180.436 1075.76 171.77L1076.56 172.633C1074.98 177.375 1072.65 181.075 1069.56 183.733C1066.47 186.381 1063.23 187.705 1059.82 187.705C1057.73 187.705 1056.12 187.041 1055 185.711C1053.88 184.393 1053.32 182.681 1053.32 180.578ZM1066.53 146.1C1066.53 144.97 1067.21 143.949 1068.58 143.039C1069.96 142.128 1071.34 141.673 1072.74 141.673C1074.6 141.673 1075.52 142.5 1075.52 144.154C1075.52 145.336 1074.94 146.42 1073.78 147.403C1072.62 148.387 1071.36 148.879 1070.01 148.879C1069.98 148.879 1069.96 148.879 1069.93 148.879C1067.66 148.879 1066.53 147.953 1066.53 146.1ZM1073.33 180.499C1073.33 176.888 1074.35 173.287 1076.4 169.697C1078.46 166.107 1080.68 164.312 1083.06 164.312C1083.55 164.312 1084.14 164.448 1084.83 164.721C1083.76 165.631 1082.48 167.881 1081.02 171.472C1079.56 175.062 1078.84 177.877 1078.84 179.918C1078.84 183.152 1079.84 184.769 1081.85 184.769C1084.33 184.769 1087.37 182.503 1090.96 177.971C1089.39 176.673 1088.16 174.978 1087.27 172.885C1086.39 170.781 1085.95 168.598 1085.95 166.338C1085.95 163.417 1086.69 160.905 1088.18 158.802C1089.67 156.708 1091.69 155.662 1094.22 155.662C1098.12 155.662 1100.08 157.844 1100.11 162.209C1100.11 166.615 1098.21 171.634 1094.4 177.265C1095.42 177.82 1096.5 178.113 1097.63 178.144C1099.25 178.144 1100.95 177.647 1102.72 176.653C1104.49 175.658 1105.81 174.109 1106.69 172.005L1107.72 172.885C1106.65 175.365 1105.12 177.197 1103.16 178.38C1101.18 179.573 1099.14 180.169 1097.05 180.169C1095.53 180.169 1094.18 179.876 1092.98 179.29C1088.46 185.225 1084.13 188.208 1079.98 188.239C1077.67 188.239 1075.98 187.527 1074.91 186.104C1073.85 184.68 1073.33 182.812 1073.33 180.499ZM1089.59 166.589C1089.59 170.43 1090.54 173.481 1092.45 175.742C1095.73 170.885 1097.38 166.536 1097.38 162.695C1097.38 159.524 1096.54 157.938 1094.85 157.938C1093.6 157.938 1092.42 158.802 1091.29 160.529C1090.16 162.256 1089.59 164.276 1089.59 166.589ZM1101.85 184.926C1101.85 184.759 1102.35 183.43 1103.34 180.939C1104.33 178.437 1105.33 175.538 1106.36 172.241C1107.38 168.944 1107.9 166.217 1107.9 164.061C1108.96 162.878 1110.26 162.287 1111.78 162.287C1113.29 162.287 1114.05 163.02 1114.05 164.485C1114.05 166.411 1113.16 170.132 1111.37 175.648C1117.88 165.715 1123.75 160.748 1129 160.748C1131.04 160.748 1132.59 161.502 1133.66 163.009C1134.72 164.516 1135.25 166.301 1135.25 168.363C1135.25 170.247 1134.67 172.628 1133.52 175.506C1132.36 178.395 1131.78 180.489 1131.78 181.786C1131.78 183.932 1132.63 185.005 1134.34 185.005C1137.84 185.005 1141.79 180.593 1146.19 171.77L1147.13 172.885C1143.08 182.43 1138.2 187.203 1132.48 187.203C1130.55 187.203 1129.07 186.706 1128.06 185.711C1127.03 184.717 1126.52 183.409 1126.52 181.786C1126.52 180.656 1126.93 178.746 1127.76 176.056C1128.58 173.356 1129 171.33 1129 169.98C1129 167.227 1127.87 165.851 1125.61 165.851C1124.26 165.851 1122.8 166.385 1121.24 167.452C1119.68 168.53 1118.31 169.692 1117.13 170.938C1115.94 172.183 1114.53 173.989 1112.92 176.354C1111.31 178.73 1110.16 180.483 1109.47 181.614L1106.36 186.795C1104.27 186.795 1102.76 186.172 1101.85 184.926Z" fill="#7C8474"/>
</svg>
