<svg width="2338" height="1080" viewBox="0 0 2338 1080" fill="none" xmlns="http://www.w3.org/2000/svg">
<rect x="3.5" y="3.5" width="2331" height="1073" rx="121.5" fill="white"/>
<path d="M1176.3 378V296.242H1201.46C1208.64 296.242 1215.06 297.871 1220.72 301.127C1226.41 304.347 1230.84 308.951 1234.02 314.941C1237.21 320.893 1238.8 327.669 1238.8 335.268V339.03C1238.8 346.63 1237.23 353.387 1234.08 359.301C1230.97 365.216 1226.57 369.802 1220.88 373.059C1215.19 376.315 1208.77 377.963 1201.62 378H1176.3ZM1193.15 309.887V364.467H1201.29C1207.88 364.467 1212.91 362.315 1216.39 358.01C1219.87 353.705 1221.65 347.547 1221.73 339.536V335.212C1221.73 326.901 1220.01 320.612 1216.56 316.345C1213.12 312.04 1208.08 309.887 1201.46 309.887H1193.15ZM1277.99 379.123C1269.08 379.123 1261.82 376.39 1256.2 370.925C1250.63 365.459 1247.84 358.178 1247.84 349.082V347.509C1247.84 341.407 1249.02 335.961 1251.38 331.169C1253.73 326.34 1257.07 322.634 1261.37 320.051C1265.71 317.43 1270.65 316.12 1276.19 316.12C1284.51 316.12 1291.04 318.741 1295.79 323.981C1300.58 329.222 1302.98 336.653 1302.98 346.274V352.9H1264.29C1264.81 356.868 1266.39 360.05 1269.01 362.446C1271.67 364.842 1275.02 366.04 1279.06 366.04C1285.31 366.04 1290.2 363.775 1293.71 359.245L1301.69 368.173C1299.25 371.617 1295.96 374.313 1291.81 376.259C1287.65 378.168 1283.05 379.123 1277.99 379.123ZM1276.14 329.26C1272.92 329.26 1270.3 330.345 1268.28 332.517C1266.29 334.688 1265.02 337.795 1264.46 341.838H1287.03V340.546C1286.96 336.953 1285.98 334.182 1284.11 332.236C1282.24 330.252 1279.58 329.26 1276.14 329.26ZM1345.15 361.21C1345.15 359.226 1344.16 357.673 1342.17 356.55C1340.23 355.389 1337.08 354.36 1332.74 353.461C1318.29 350.429 1311.07 344.29 1311.07 335.043C1311.07 329.653 1313.29 325.161 1317.75 321.567C1322.24 317.936 1328.1 316.12 1335.32 316.12C1343.03 316.12 1349.19 317.936 1353.8 321.567C1358.44 325.198 1360.76 329.915 1360.76 335.717H1344.53C1344.53 333.396 1343.78 331.487 1342.29 329.99C1340.79 328.455 1338.45 327.688 1335.27 327.688C1332.53 327.688 1330.42 328.305 1328.92 329.541C1327.42 330.776 1326.68 332.348 1326.68 334.257C1326.68 336.054 1327.52 337.514 1329.2 338.637C1330.92 339.723 1333.81 340.677 1337.85 341.501C1341.89 342.287 1345.3 343.186 1348.07 344.196C1356.64 347.341 1360.93 352.788 1360.93 360.537C1360.93 366.077 1358.55 370.569 1353.8 374.013C1349.04 377.42 1342.9 379.123 1335.38 379.123C1330.29 379.123 1325.76 378.225 1321.79 376.428C1317.86 374.593 1314.77 372.104 1312.53 368.959C1310.28 365.778 1309.16 362.352 1309.16 358.684H1324.54C1324.69 361.566 1325.76 363.775 1327.74 365.31C1329.73 366.844 1332.38 367.612 1335.72 367.612C1338.82 367.612 1341.16 367.032 1342.74 365.871C1344.35 364.673 1345.15 363.12 1345.15 361.21ZM1388.56 378H1372.27V317.243H1388.56V378ZM1371.32 301.521C1371.32 299.087 1372.12 297.084 1373.73 295.512C1375.38 293.94 1377.61 293.154 1380.41 293.154C1383.18 293.154 1385.39 293.94 1387.04 295.512C1388.69 297.084 1389.51 299.087 1389.51 301.521C1389.51 303.991 1388.67 306.013 1386.98 307.585C1385.34 309.157 1383.15 309.943 1380.41 309.943C1377.68 309.943 1375.47 309.157 1373.79 307.585C1372.14 306.013 1371.32 303.991 1371.32 301.521ZM1399.62 347.172C1399.62 337.851 1401.83 330.345 1406.24 324.655C1410.7 318.965 1416.69 316.12 1424.21 316.12C1430.88 316.12 1436.06 318.404 1439.77 322.971L1440.44 317.243H1455.15V375.979C1455.15 381.294 1453.94 385.917 1451.5 389.848C1449.11 393.779 1445.72 396.774 1441.34 398.833C1436.96 400.891 1431.83 401.921 1425.95 401.921C1421.5 401.921 1417.16 401.022 1412.93 399.226C1408.7 397.466 1405.49 395.183 1403.32 392.375L1410.51 382.492C1414.55 387.022 1419.46 389.287 1425.22 389.287C1429.53 389.287 1432.88 388.126 1435.27 385.805C1437.67 383.522 1438.87 380.265 1438.87 376.035V372.778C1435.12 377.008 1430.2 379.123 1424.1 379.123C1416.8 379.123 1410.89 376.278 1406.36 370.588C1401.86 364.86 1399.62 357.28 1399.62 347.846V347.172ZM1415.85 348.352C1415.85 353.854 1416.95 358.178 1419.16 361.323C1421.37 364.43 1424.4 365.983 1428.26 365.983C1433.2 365.983 1436.73 364.13 1438.87 360.424V334.875C1436.7 331.169 1433.2 329.316 1428.37 329.316C1424.47 329.316 1421.4 330.907 1419.16 334.089C1416.95 337.271 1415.85 342.025 1415.85 348.352ZM1482.61 317.243L1483.12 324.262C1487.46 318.834 1493.28 316.12 1500.58 316.12C1507.02 316.12 1511.81 318.011 1514.95 321.792C1518.1 325.572 1519.71 331.225 1519.78 338.75V378H1503.56V339.143C1503.56 335.699 1502.81 333.209 1501.31 331.674C1499.81 330.102 1497.32 329.316 1493.84 329.316C1489.27 329.316 1485.85 331.263 1483.57 335.156V378H1467.34V317.243H1482.61ZM1560.1 379.123C1551.19 379.123 1543.93 376.39 1538.31 370.925C1532.74 365.459 1529.95 358.178 1529.95 349.082V347.509C1529.95 341.407 1531.13 335.961 1533.48 331.169C1535.84 326.34 1539.17 322.634 1543.48 320.051C1547.82 317.43 1552.76 316.12 1558.3 316.12C1566.61 316.12 1573.15 318.741 1577.9 323.981C1582.69 329.222 1585.09 336.653 1585.09 346.274V352.9H1546.4C1546.92 356.868 1548.5 360.05 1551.12 362.446C1553.77 364.842 1557.12 366.04 1561.17 366.04C1567.42 366.04 1572.3 363.775 1575.82 359.245L1583.8 368.173C1581.36 371.617 1578.07 374.313 1573.91 376.259C1569.76 378.168 1565.15 379.123 1560.1 379.123ZM1558.25 329.26C1555.03 329.26 1552.41 330.345 1550.39 332.517C1548.4 334.688 1547.13 337.795 1546.57 341.838H1569.14V340.546C1569.07 336.953 1568.09 334.182 1566.22 332.236C1564.35 330.252 1561.69 329.26 1558.25 329.26ZM1591.83 347.172C1591.83 337.701 1593.94 330.158 1598.17 324.543C1602.44 318.928 1608.26 316.12 1615.64 316.12C1621.55 316.12 1626.44 318.329 1630.29 322.746V291.75H1646.58V378H1631.92L1631.13 371.542C1627.09 376.596 1621.89 379.123 1615.52 379.123C1608.37 379.123 1602.63 376.315 1598.28 370.7C1593.98 365.048 1591.83 357.205 1591.83 347.172ZM1608.06 348.352C1608.06 354.042 1609.05 358.403 1611.03 361.435C1613.02 364.467 1615.9 365.983 1619.68 365.983C1624.69 365.983 1628.23 363.868 1630.29 359.638V335.661C1628.27 331.431 1624.77 329.316 1619.79 329.316C1611.97 329.316 1608.06 335.661 1608.06 348.352ZM1688.86 378V296.242H1717.5C1727.42 296.242 1734.94 298.151 1740.07 301.97C1745.2 305.751 1747.76 311.31 1747.76 318.647C1747.76 322.653 1746.73 326.19 1744.67 329.26C1742.61 332.292 1739.75 334.519 1736.08 335.942C1740.28 336.99 1743.57 339.105 1745.97 342.287C1748.4 345.469 1749.62 349.362 1749.62 353.967C1749.62 361.828 1747.11 367.78 1742.09 371.823C1737.07 375.866 1729.92 377.925 1720.64 378H1688.86ZM1705.7 342.399V364.467H1720.14C1724.1 364.467 1727.19 363.531 1729.4 361.66C1731.65 359.75 1732.77 357.13 1732.77 353.798C1732.77 346.311 1728.9 342.512 1721.15 342.399H1705.7ZM1705.7 330.495H1718.17C1726.67 330.345 1730.92 326.958 1730.92 320.332C1730.92 316.625 1729.83 313.968 1727.66 312.358C1725.53 310.711 1722.14 309.887 1717.5 309.887H1705.7V330.495ZM1783.92 355.034L1795.15 317.243H1812.56L1788.14 387.434L1786.79 390.634C1783.16 398.57 1777.17 402.539 1768.82 402.539C1766.46 402.539 1764.07 402.183 1761.63 401.472V389.174L1764.1 389.23C1767.17 389.23 1769.46 388.763 1770.95 387.827C1772.49 386.891 1773.69 385.337 1774.55 383.166L1776.46 378.168L1755.17 317.243H1772.64L1783.92 355.034ZM1819.75 370.026C1819.75 367.443 1820.61 365.347 1822.33 363.737C1824.09 362.128 1826.28 361.323 1828.9 361.323C1831.56 361.323 1833.75 362.128 1835.47 363.737C1837.23 365.347 1838.11 367.443 1838.11 370.026C1838.11 372.572 1837.25 374.65 1835.53 376.259C1833.81 377.832 1831.6 378.618 1828.9 378.618C1826.24 378.618 1824.05 377.832 1822.33 376.259C1820.61 374.65 1819.75 372.572 1819.75 370.026ZM1819.75 324.038C1819.75 321.455 1820.61 319.358 1822.33 317.749C1824.09 316.139 1826.28 315.334 1828.9 315.334C1831.56 315.334 1833.75 316.139 1835.47 317.749C1837.23 319.358 1838.11 321.455 1838.11 324.038C1838.11 326.583 1837.25 328.661 1835.53 330.271C1833.81 331.843 1831.6 332.629 1828.9 332.629C1826.24 332.629 1824.05 331.843 1822.33 330.271C1820.61 328.661 1819.75 326.583 1819.75 324.038ZM1193.15 565.467H1228.91V579H1176.3V497.242H1193.15V565.467ZM1235.04 548.06C1235.04 542.033 1236.2 536.661 1238.52 531.944C1240.84 527.228 1244.17 523.578 1248.51 520.995C1252.89 518.412 1257.96 517.12 1263.73 517.12C1271.93 517.12 1278.61 519.628 1283.78 524.645C1288.98 529.661 1291.88 536.474 1292.48 545.084L1292.59 549.239C1292.59 558.561 1289.99 566.048 1284.79 571.7C1279.58 577.315 1272.6 580.123 1263.84 580.123C1255.08 580.123 1248.08 577.315 1242.84 571.7C1237.64 566.085 1235.04 558.448 1235.04 548.79V548.06ZM1251.26 549.239C1251.26 555.004 1252.35 559.422 1254.52 562.491C1256.69 565.523 1259.8 567.04 1263.84 567.04C1267.77 567.04 1270.84 565.542 1273.05 562.547C1275.26 559.515 1276.36 554.686 1276.36 548.06C1276.36 542.407 1275.26 538.028 1273.05 534.92C1270.84 531.813 1267.73 530.26 1263.73 530.26C1259.76 530.26 1256.69 531.813 1254.52 534.92C1252.35 537.99 1251.26 542.763 1251.26 549.239ZM1300.23 548.172C1300.23 538.851 1302.44 531.345 1306.85 525.655C1311.31 519.965 1317.3 517.12 1324.82 517.12C1331.49 517.12 1336.67 519.404 1340.38 523.971L1341.05 518.243H1355.76V576.979C1355.76 582.294 1354.55 586.917 1352.11 590.848C1349.72 594.779 1346.33 597.774 1341.95 599.833C1337.57 601.891 1332.44 602.921 1326.56 602.921C1322.11 602.921 1317.77 602.022 1313.54 600.226C1309.31 598.466 1306.11 596.183 1303.93 593.375L1311.12 583.492C1315.16 588.022 1320.07 590.287 1325.83 590.287C1330.14 590.287 1333.49 589.126 1335.88 586.805C1338.28 584.522 1339.48 581.265 1339.48 577.035V573.778C1335.74 578.008 1330.81 580.123 1324.71 580.123C1317.41 580.123 1311.5 577.278 1306.97 571.588C1302.47 565.86 1300.23 558.28 1300.23 548.846V548.172ZM1316.46 549.352C1316.46 554.854 1317.56 559.178 1319.77 562.323C1321.98 565.43 1325.01 566.983 1328.87 566.983C1333.81 566.983 1337.34 565.13 1339.48 561.424V535.875C1337.31 532.169 1333.81 530.316 1328.98 530.316C1325.08 530.316 1322.02 531.907 1319.77 535.089C1317.56 538.271 1316.46 543.025 1316.46 549.352ZM1403.49 579C1402.74 577.54 1402.2 575.724 1401.86 573.553C1397.93 577.933 1392.82 580.123 1386.53 580.123C1380.58 580.123 1375.64 578.401 1371.71 574.957C1367.82 571.513 1365.87 567.171 1365.87 561.93C1365.87 555.491 1368.25 550.549 1373 547.105C1377.79 543.661 1384.7 541.921 1393.72 541.883H1401.19V538.402C1401.19 535.594 1400.46 533.348 1399 531.664C1397.58 529.979 1395.31 529.137 1392.21 529.137C1389.47 529.137 1387.32 529.792 1385.75 531.102C1384.21 532.412 1383.45 534.209 1383.45 536.493H1367.22C1367.22 532.974 1368.3 529.717 1370.47 526.722C1372.65 523.727 1375.72 521.388 1379.68 519.703C1383.65 517.981 1388.11 517.12 1393.05 517.12C1400.53 517.12 1406.47 519.011 1410.85 522.792C1415.27 526.535 1417.47 531.813 1417.47 538.626V564.962C1417.51 570.727 1418.32 575.088 1419.89 578.045V579H1403.49ZM1390.07 567.713C1392.47 567.713 1394.68 567.189 1396.7 566.141C1398.72 565.056 1400.22 563.614 1401.19 561.817V551.373H1395.13C1387 551.373 1382.68 554.181 1382.15 559.796L1382.1 560.75C1382.1 562.772 1382.81 564.438 1384.23 565.748C1385.65 567.058 1387.6 567.713 1390.07 567.713ZM1444.88 518.243L1445.38 525.262C1449.72 519.834 1455.55 517.12 1462.85 517.12C1469.28 517.12 1474.08 519.011 1477.22 522.792C1480.36 526.572 1481.97 532.225 1482.05 539.75V579H1465.82V540.143C1465.82 536.699 1465.07 534.209 1463.58 532.674C1462.08 531.102 1459.59 530.316 1456.11 530.316C1451.54 530.316 1448.11 532.263 1445.83 536.156V579H1429.6V518.243H1444.88ZM1554.37 549.071H1540.95V579H1524.11V497.242H1554.49C1564.14 497.242 1571.59 499.395 1576.83 503.7C1582.08 508.005 1584.7 514.088 1584.7 521.949C1584.7 527.527 1583.48 532.188 1581.05 535.931C1578.65 539.637 1575 542.595 1570.1 544.803L1587.78 578.214V579H1569.7L1554.37 549.071ZM1540.95 535.426H1554.54C1558.77 535.426 1562.05 534.359 1564.37 532.225C1566.69 530.054 1567.85 527.078 1567.85 523.297C1567.85 519.441 1566.75 516.409 1564.54 514.2C1562.37 511.992 1559.02 510.887 1554.49 510.887H1540.95V535.426ZM1626.19 579V497.242H1651.35C1658.54 497.242 1664.96 498.871 1670.61 502.127C1676.3 505.347 1680.74 509.951 1683.92 515.941C1687.1 521.893 1688.69 528.669 1688.69 536.268V540.03C1688.69 547.63 1687.12 554.387 1683.97 560.301C1680.87 566.216 1676.47 570.802 1670.78 574.059C1665.09 577.315 1658.67 578.963 1651.52 579H1626.19ZM1643.04 510.887V565.467H1651.18C1657.77 565.467 1662.8 563.315 1666.29 559.01C1669.77 554.705 1671.54 548.547 1671.62 540.536V536.212C1671.62 527.901 1669.9 521.612 1666.45 517.345C1663.01 513.04 1657.97 510.887 1651.35 510.887H1643.04ZM1735.13 579C1734.38 577.54 1733.84 575.724 1733.5 573.553C1729.57 577.933 1724.46 580.123 1718.17 580.123C1712.22 580.123 1707.28 578.401 1703.35 574.957C1699.45 571.513 1697.51 567.171 1697.51 561.93C1697.51 555.491 1699.88 550.549 1704.64 547.105C1709.43 543.661 1716.34 541.921 1725.36 541.883H1732.83V538.402C1732.83 535.594 1732.1 533.348 1730.64 531.664C1729.21 529.979 1726.95 529.137 1723.84 529.137C1721.11 529.137 1718.96 529.792 1717.38 531.102C1715.85 532.412 1715.08 534.209 1715.08 536.493H1698.85C1698.85 532.974 1699.94 529.717 1702.11 526.722C1704.28 523.727 1707.35 521.388 1711.32 519.703C1715.29 517.981 1719.74 517.12 1724.68 517.12C1732.17 517.12 1738.1 519.011 1742.48 522.792C1746.9 526.535 1749.11 531.813 1749.11 538.626V564.962C1749.15 570.727 1749.95 575.088 1751.52 578.045V579H1735.13ZM1721.71 567.713C1724.1 567.713 1726.31 567.189 1728.33 566.141C1730.35 565.056 1731.85 563.614 1732.83 561.817V551.373H1726.76C1718.64 551.373 1714.31 554.181 1713.79 559.796L1713.73 560.75C1713.73 562.772 1714.45 564.438 1715.87 565.748C1717.29 567.058 1719.24 567.713 1721.71 567.713ZM1783.42 559.178L1794.71 518.243H1811.66L1791.17 579H1775.67L1755.17 518.243H1772.13L1783.42 559.178ZM1835.98 579H1819.69V518.243H1835.98V579ZM1818.74 502.521C1818.74 500.087 1819.54 498.084 1821.15 496.512C1822.8 494.94 1825.03 494.154 1827.84 494.154C1830.61 494.154 1832.81 494.94 1834.46 496.512C1836.11 498.084 1836.93 500.087 1836.93 502.521C1836.93 504.991 1836.09 507.013 1834.41 508.585C1832.76 510.157 1830.57 510.943 1827.84 510.943C1825.1 510.943 1822.89 510.157 1821.21 508.585C1819.56 507.013 1818.74 504.991 1818.74 502.521ZM1882.3 562.21C1882.3 560.226 1881.31 558.673 1879.33 557.55C1877.38 556.389 1874.24 555.36 1869.89 554.461C1855.44 551.429 1848.22 545.29 1848.22 536.043C1848.22 530.653 1850.45 526.161 1854.9 522.567C1859.39 518.936 1865.25 517.12 1872.48 517.12C1880.19 517.12 1886.35 518.936 1890.95 522.567C1895.59 526.198 1897.91 530.915 1897.91 536.717H1881.69C1881.69 534.396 1880.94 532.487 1879.44 530.99C1877.94 529.455 1875.6 528.688 1872.42 528.688C1869.69 528.688 1867.57 529.305 1866.08 530.541C1864.58 531.776 1863.83 533.348 1863.83 535.257C1863.83 537.054 1864.67 538.514 1866.36 539.637C1868.08 540.723 1870.96 541.677 1875 542.501C1879.05 543.287 1882.45 544.186 1885.22 545.196C1893.8 548.341 1898.08 553.788 1898.08 561.537C1898.08 567.077 1895.7 571.569 1890.95 575.013C1886.2 578.42 1880.06 580.123 1872.53 580.123C1867.44 580.123 1862.91 579.225 1858.94 577.428C1855.01 575.593 1851.92 573.104 1849.68 569.959C1847.43 566.778 1846.31 563.352 1846.31 559.684H1861.7C1861.85 562.566 1862.91 564.775 1864.9 566.31C1866.88 567.844 1869.54 568.612 1872.87 568.612C1875.98 568.612 1878.32 568.032 1879.89 566.871C1881.5 565.673 1882.3 564.12 1882.3 562.21ZM1228.07 757.932L1236.05 719.243H1251.71L1236.21 780H1222.63L1211.11 741.76L1199.6 780H1186.07L1170.57 719.243H1186.24L1194.16 757.876L1205.27 719.243H1217.01L1228.07 757.932ZM1312.64 757.932L1320.61 719.243H1336.28L1320.78 780H1307.19L1295.68 741.76L1284.17 780H1270.64L1255.14 719.243H1270.8L1278.72 757.876L1289.84 719.243H1301.58L1312.64 757.932ZM1397.2 757.932L1405.18 719.243H1420.84L1405.35 780H1391.76L1380.25 741.76L1368.73 780H1355.2L1339.7 719.243H1355.37L1363.29 757.876L1374.41 719.243H1386.14L1397.2 757.932ZM1422.81 772.026C1422.81 769.443 1423.67 767.347 1425.39 765.737C1427.15 764.128 1429.34 763.323 1431.96 763.323C1434.62 763.323 1436.81 764.128 1438.53 765.737C1440.29 767.347 1441.17 769.443 1441.17 772.026C1441.17 774.572 1440.31 776.65 1438.59 778.259C1436.87 779.832 1434.66 780.618 1431.96 780.618C1429.3 780.618 1427.11 779.832 1425.39 778.259C1423.67 776.65 1422.81 774.572 1422.81 772.026ZM1472.56 780H1456.28V693.75H1472.56V780ZM1483.45 749.06C1483.45 743.033 1484.61 737.661 1486.93 732.944C1489.26 728.228 1492.59 724.578 1496.93 721.995C1501.31 719.412 1506.38 718.12 1512.15 718.12C1520.35 718.12 1527.03 720.628 1532.19 725.645C1537.4 730.661 1540.3 737.474 1540.9 746.084L1541.01 750.239C1541.01 759.561 1538.41 767.048 1533.2 772.7C1528 778.315 1521.02 781.123 1512.26 781.123C1503.5 781.123 1496.5 778.315 1491.26 772.7C1486.05 767.085 1483.45 759.448 1483.45 749.79V749.06ZM1499.68 750.239C1499.68 756.004 1500.77 760.422 1502.94 763.491C1505.11 766.523 1508.22 768.04 1512.26 768.04C1516.19 768.04 1519.26 766.542 1521.47 763.547C1523.68 760.515 1524.78 755.686 1524.78 749.06C1524.78 743.407 1523.68 739.028 1521.47 735.92C1519.26 732.813 1516.15 731.26 1512.15 731.26C1508.18 731.26 1505.11 732.813 1502.94 735.92C1500.77 738.99 1499.68 743.763 1499.68 750.239ZM1548.65 749.172C1548.65 739.851 1550.85 732.345 1555.27 726.655C1559.73 720.965 1565.72 718.12 1573.24 718.12C1579.9 718.12 1585.09 720.404 1588.79 724.971L1589.47 719.243H1604.18V777.979C1604.18 783.294 1602.96 787.917 1600.53 791.848C1598.13 795.779 1594.75 798.774 1590.37 800.833C1585.99 802.891 1580.86 803.921 1574.98 803.921C1570.53 803.921 1566.18 803.022 1561.95 801.226C1557.72 799.466 1554.52 797.183 1552.35 794.375L1559.54 784.492C1563.58 789.022 1568.49 791.287 1574.25 791.287C1578.56 791.287 1581.91 790.126 1584.3 787.805C1586.7 785.522 1587.9 782.265 1587.9 778.035V774.778C1584.15 779.008 1579.23 781.123 1573.13 781.123C1565.83 781.123 1559.91 778.278 1555.38 772.588C1550.89 766.86 1548.65 759.28 1548.65 749.846V749.172ZM1564.87 750.352C1564.87 755.854 1565.98 760.178 1568.19 763.323C1570.4 766.43 1573.43 767.983 1577.28 767.983C1582.23 767.983 1585.76 766.13 1587.9 762.424V736.875C1585.73 733.169 1582.23 731.316 1577.4 731.316C1573.5 731.316 1570.43 732.907 1568.19 736.089C1565.98 739.271 1564.87 744.025 1564.87 750.352ZM1651.91 780C1651.16 778.54 1650.62 776.724 1650.28 774.553C1646.35 778.933 1641.24 781.123 1634.95 781.123C1629 781.123 1624.06 779.401 1620.13 775.957C1616.23 772.513 1614.29 768.171 1614.29 762.93C1614.29 756.491 1616.67 751.549 1621.42 748.105C1626.21 744.661 1633.12 742.921 1642.14 742.883H1649.61V739.402C1649.61 736.594 1648.88 734.348 1647.42 732.664C1646 730.979 1643.73 730.137 1640.62 730.137C1637.89 730.137 1635.74 730.792 1634.17 732.102C1632.63 733.412 1631.86 735.209 1631.86 737.493H1615.64C1615.64 733.974 1616.72 730.717 1618.89 727.722C1621.06 724.727 1624.13 722.388 1628.1 720.703C1632.07 718.981 1636.52 718.12 1641.47 718.12C1648.95 718.12 1654.89 720.011 1659.27 723.792C1663.68 727.535 1665.89 732.813 1665.89 739.626V765.962C1665.93 771.727 1666.73 776.088 1668.31 779.045V780H1651.91ZM1638.49 768.713C1640.89 768.713 1643.09 768.189 1645.12 767.141C1647.14 766.056 1648.63 764.614 1649.61 762.817V752.373H1643.54C1635.42 752.373 1631.1 755.181 1630.57 760.796L1630.52 761.75C1630.52 763.772 1631.23 765.438 1632.65 766.748C1634.07 768.058 1636.02 768.713 1638.49 768.713ZM1693.29 719.243L1693.8 726.262C1698.14 720.834 1703.96 718.12 1711.26 718.12C1717.7 718.12 1722.49 720.011 1725.64 723.792C1728.78 727.572 1730.39 733.225 1730.47 740.75V780H1714.24V741.143C1714.24 737.699 1713.49 735.209 1711.99 733.674C1710.5 732.102 1708.01 731.316 1704.52 731.316C1699.96 731.316 1696.53 733.263 1694.25 737.156V780H1678.02V719.243H1693.29ZM1776.96 734.46C1774.75 734.161 1772.81 734.011 1771.12 734.011C1764.98 734.011 1760.96 736.089 1759.05 740.244V780H1742.82V719.243H1758.15L1758.6 726.487C1761.86 720.909 1766.37 718.12 1772.13 718.12C1773.93 718.12 1775.61 718.363 1777.19 718.85L1776.96 734.46ZM1781.17 749.172C1781.17 739.701 1783.29 732.158 1787.52 726.543C1791.79 720.928 1797.61 718.12 1804.98 718.12C1810.9 718.12 1815.78 720.329 1819.64 724.746V693.75H1835.92V780H1821.27L1820.48 773.542C1816.44 778.596 1811.23 781.123 1804.87 781.123C1797.72 781.123 1791.97 778.315 1787.63 772.7C1783.33 767.048 1781.17 759.205 1781.17 749.172ZM1797.4 750.352C1797.4 756.042 1798.39 760.403 1800.38 763.435C1802.36 766.467 1805.24 767.983 1809.02 767.983C1814.04 767.983 1817.58 765.868 1819.64 761.638V737.661C1817.62 733.431 1814.12 731.316 1809.14 731.316C1801.31 731.316 1797.4 737.661 1797.4 750.352ZM1883.71 780C1882.96 778.54 1882.42 776.724 1882.08 774.553C1878.15 778.933 1873.04 781.123 1866.75 781.123C1860.8 781.123 1855.86 779.401 1851.92 775.957C1848.03 772.513 1846.08 768.171 1846.08 762.93C1846.08 756.491 1848.46 751.549 1853.22 748.105C1858.01 744.661 1864.91 742.921 1873.94 742.883H1881.4V739.402C1881.4 736.594 1880.67 734.348 1879.21 732.664C1877.79 730.979 1875.53 730.137 1872.42 730.137C1869.69 730.137 1867.54 730.792 1865.96 732.102C1864.43 733.412 1863.66 735.209 1863.66 737.493H1847.43C1847.43 733.974 1848.52 730.717 1850.69 727.722C1852.86 724.727 1855.93 722.388 1859.9 720.703C1863.87 718.981 1868.32 718.12 1873.26 718.12C1880.75 718.12 1886.68 720.011 1891.06 723.792C1895.48 727.535 1897.69 732.813 1897.69 739.626V765.962C1897.73 771.727 1898.53 776.088 1900.1 779.045V780H1883.71ZM1870.29 768.713C1872.68 768.713 1874.89 768.189 1876.91 767.141C1878.93 766.056 1880.43 764.614 1881.4 762.817V752.373H1875.34C1867.22 752.373 1862.89 755.181 1862.37 760.796L1862.31 761.75C1862.31 763.772 1863.02 765.438 1864.45 766.748C1865.87 768.058 1867.82 768.713 1870.29 768.713ZM1932 760.178L1943.28 719.243H1960.24L1939.75 780H1924.25L1903.75 719.243H1920.71L1932 760.178ZM1984.56 780H1968.27V719.243H1984.56V780ZM1967.32 703.521C1967.32 701.087 1968.12 699.084 1969.73 697.512C1971.38 695.94 1973.61 695.154 1976.41 695.154C1979.18 695.154 1981.39 695.94 1983.04 697.512C1984.69 699.084 1985.51 701.087 1985.51 703.521C1985.51 705.991 1984.67 708.013 1982.98 709.585C1981.34 711.157 1979.15 711.943 1976.41 711.943C1973.68 711.943 1971.47 711.157 1969.79 709.585C1968.14 708.013 1967.32 705.991 1967.32 703.521ZM2030.88 763.21C2030.88 761.226 2029.89 759.673 2027.91 758.55C2025.96 757.389 2022.82 756.36 2018.47 755.461C2004.02 752.429 1996.8 746.29 1996.8 737.043C1996.8 731.653 1999.03 727.161 2003.48 723.567C2007.97 719.936 2013.83 718.12 2021.06 718.12C2028.77 718.12 2034.93 719.936 2039.53 723.567C2044.17 727.198 2046.49 731.915 2046.49 737.717H2030.26C2030.26 735.396 2029.52 733.487 2028.02 731.99C2026.52 730.455 2024.18 729.688 2021 729.688C2018.27 729.688 2016.15 730.305 2014.65 731.541C2013.16 732.776 2012.41 734.348 2012.41 736.257C2012.41 738.054 2013.25 739.514 2014.94 740.637C2016.66 741.723 2019.54 742.677 2023.58 743.501C2027.63 744.287 2031.03 745.186 2033.8 746.196C2042.37 749.341 2046.66 754.788 2046.66 762.537C2046.66 768.077 2044.28 772.569 2039.53 776.013C2034.78 779.42 2028.64 781.123 2021.11 781.123C2016.02 781.123 2011.49 780.225 2007.52 778.428C2003.59 776.593 2000.5 774.104 1998.26 770.959C1996.01 767.778 1994.89 764.352 1994.89 760.684H2010.27C2010.42 763.566 2011.49 765.775 2013.48 767.31C2015.46 768.844 2018.12 769.612 2021.45 769.612C2024.56 769.612 2026.9 769.032 2028.47 767.871C2030.08 766.673 2030.88 765.12 2030.88 763.21ZM2058 772.026C2058 769.443 2058.86 767.347 2060.59 765.737C2062.35 764.128 2064.54 763.323 2067.16 763.323C2069.81 763.323 2072 764.128 2073.73 765.737C2075.49 767.347 2076.37 769.443 2076.37 772.026C2076.37 774.572 2075.5 776.65 2073.78 778.259C2072.06 779.832 2069.85 780.618 2067.16 780.618C2064.5 780.618 2062.31 779.832 2060.59 778.259C2058.86 776.65 2058 774.572 2058 772.026ZM2115.9 768.04C2118.89 768.04 2121.33 767.216 2123.2 765.569C2125.07 763.922 2126.04 761.732 2126.12 758.999H2141.33C2141.3 763.117 2140.17 766.898 2137.96 770.342C2135.76 773.748 2132.72 776.406 2128.87 778.315C2125.05 780.187 2120.82 781.123 2116.18 781.123C2107.49 781.123 2100.64 778.372 2095.63 772.869C2090.61 767.328 2088.1 759.692 2088.1 749.958V748.892C2088.1 739.533 2090.59 732.065 2095.57 726.487C2100.55 720.909 2107.38 718.12 2116.07 718.12C2123.66 718.12 2129.75 720.291 2134.31 724.634C2138.92 728.939 2141.26 734.685 2141.33 741.873H2126.12C2126.04 738.728 2125.07 736.182 2123.2 734.236C2121.33 732.252 2118.85 731.26 2115.78 731.26C2112 731.26 2109.14 732.645 2107.19 735.415C2105.28 738.148 2104.33 742.603 2104.33 748.779V750.464C2104.33 756.715 2105.28 761.208 2107.19 763.94C2109.1 766.673 2112 768.04 2115.9 768.04ZM2148.07 749.06C2148.07 743.033 2149.23 737.661 2151.55 732.944C2153.87 728.228 2157.21 724.578 2161.55 721.995C2165.93 719.412 2171 718.12 2176.77 718.12C2184.96 718.12 2191.65 720.628 2196.81 725.645C2202.02 730.661 2204.92 737.474 2205.52 746.084L2205.63 750.239C2205.63 759.561 2203.03 767.048 2197.82 772.7C2192.62 778.315 2185.64 781.123 2176.88 781.123C2168.12 781.123 2161.12 778.315 2155.88 772.7C2150.67 767.085 2148.07 759.448 2148.07 749.79V749.06ZM2164.3 750.239C2164.3 756.004 2165.39 760.422 2167.56 763.491C2169.73 766.523 2172.84 768.04 2176.88 768.04C2180.81 768.04 2183.88 766.542 2186.09 763.547C2188.3 760.515 2189.4 755.686 2189.4 749.06C2189.4 743.407 2188.3 739.028 2186.09 735.92C2183.88 732.813 2180.77 731.26 2176.77 731.26C2172.8 731.26 2169.73 732.813 2167.56 735.92C2165.39 738.99 2164.3 743.763 2164.3 750.239ZM2230.84 719.243L2231.35 726.038C2235.65 720.759 2241.47 718.12 2248.81 718.12C2256.63 718.12 2262.01 721.208 2264.93 727.385C2269.19 721.208 2275.28 718.12 2283.17 718.12C2289.76 718.12 2294.67 720.048 2297.89 723.904C2301.11 727.722 2302.72 733.487 2302.72 741.199V780H2286.43V741.255C2286.43 737.811 2285.76 735.303 2284.41 733.73C2283.06 732.121 2280.69 731.316 2277.28 731.316C2272.41 731.316 2269.04 733.637 2267.17 738.279L2267.23 780H2251V741.311C2251 737.792 2250.31 735.247 2248.92 733.674C2247.54 732.102 2245.18 731.316 2241.85 731.316C2237.24 731.316 2233.91 733.225 2231.85 737.043V780H2215.62V719.243H2230.84Z" fill="black"/>
<path d="M580.105 147.06V710.659C515.057 754.554 447.876 788.556 385.33 809.873V147.06C385.33 139.656 391.313 133.679 398.715 133.679H566.72C574.124 133.679 580.105 139.656 580.105 147.06Z" fill="#2C3892"/>
<path d="M1062 820.25V961.58C1062 968.985 1056.02 974.961 1048.62 974.961H398.383C390.981 974.961 384.998 968.985 384.998 961.58V943.194C445.672 926.251 509.994 899.211 573.964 863.168C576.641 861.735 612.776 842.909 664.169 806.866H1048.62C1056.02 806.866 1062 812.85 1062 820.25Z" fill="#2C3892"/>
<path fill-rule="evenodd" clip-rule="evenodd" d="M967.408 199.295C964.991 196.16 962.229 193.37 959.56 190.476C960.346 186.2 960.814 181.808 960.814 177.298C960.814 137.366 928.448 105 888.515 105C863.64 105 841.714 117.568 828.703 136.692C762.964 132.665 683.497 148.479 599.189 182.684V203.746C682.835 171.368 759.329 160.219 816.436 172.898C816.347 174.361 816.218 175.815 816.218 177.298C816.218 217.23 848.587 249.599 888.515 249.599C895.376 249.599 901.979 248.585 908.261 246.801C933.763 316.332 897.215 420.371 815.905 525.415C810.466 524.474 804.914 523.888 799.21 523.888C745.179 523.888 701.392 567.681 701.392 621.708C701.392 629.523 702.402 637.069 704.138 644.353C686.525 660.069 668.011 675.512 648.625 690.527C438.014 853.634 205.548 906.087 129.404 807.76C87.3917 753.517 101.812 664.679 158.51 568.552C162.793 569.841 167.241 570.745 171.941 570.745C197.819 570.745 218.795 549.765 218.795 523.888C218.795 513.111 215.013 503.309 208.897 495.395C248.662 444.761 298.684 394.005 357.189 346.883V325.424C293.97 374.976 239.304 428.725 194.695 483.168C187.934 479.378 180.246 477.036 171.941 477.036C146.065 477.036 125.088 498.01 125.088 523.888C125.088 537.38 130.869 549.449 139.994 557.994C59.4647 683.185 36.8481 803.563 93.165 876.277C169.144 974.348 365.135 955.199 566.368 841.941L566.526 841.866C570.6 839.753 656.268 795.013 753.853 708.327C767.414 715.447 782.829 719.525 799.21 719.525C853.24 719.525 897.029 675.737 897.029 621.708C897.029 603.138 891.761 585.839 882.776 571.05C993.115 427.472 1031.68 282.298 967.408 199.295Z" fill="#F14624"/>
<rect x="3.5" y="3.5" width="2331" height="1073" rx="121.5" stroke="black" stroke-width="7"/>
</svg>
